<svg width="1920" height="419" viewBox="0 0 1920 419" fill="none" xmlns="http://www.w3.org/2000/svg">
    <rect y="334" width="1920" height="85" fill="#D5E06C" />
    <g clip-path="url(#clip0)">
        <path
            d="M146.752 362.385L157.456 360.321C161.474 359.578 164.103 355.645 163.252 351.766L129.613 177.523C128.869 173.506 124.935 170.878 121.055 171.729L110.351 173.793C106.334 174.536 103.705 178.469 104.555 182.348L138.195 356.591C138.923 360.485 142.735 363.128 146.752 362.385Z"
            fill="#E08B48" />
        <path
            d="M64.2993 237.716C69.3285 237.097 72.8785 232.552 72.2599 227.525L52.2707 65.046C51.6521 60.0183 47.1065 56.4697 42.0773 57.0884C37.0482 57.7071 33.4981 62.2518 34.1167 67.2794L54.0908 229.635C54.7093 234.663 59.2702 238.334 64.2993 237.716Z"
            fill="#F19E53" />
        <path
            d="M93.5471 369.18L104.341 367.852C108.389 367.354 111.294 363.635 110.796 359.589L87.7895 172.585C87.2916 168.538 83.5724 165.635 79.5245 166.133L68.6076 167.476C64.5598 167.974 61.6552 171.692 62.1531 175.739L85.1595 362.743C85.78 366.774 89.4993 369.678 93.5471 369.18Z"
            fill="#F4B359" />
        <path
            d="M220.327 117.316L438.847 153.669L449.015 236.319L232.771 242.757L68.2806 262.993C73.0192 262.037 76.2163 257.66 75.6129 252.755C74.9793 247.605 70.3109 244.071 65.2818 244.69C60.1299 245.324 56.595 249.991 57.2135 255.019L42.9571 139.138L220.327 117.316Z"
            fill="#ECECEC" />
        <path
            d="M65.2818 244.69C70.4336 244.056 74.9944 247.727 75.6129 252.755C76.2164 257.66 72.8966 262.052 68.2807 262.993L66.8088 263.174C61.9797 263.395 57.817 259.924 57.2136 255.019C56.595 249.991 60.2526 245.309 65.2818 244.69Z"
            fill="#ECECEC" />
        <path
            d="M489.272 350.993L499 346.062C502.637 344.245 504.086 339.834 502.269 336.199L426.308 184.34C424.491 180.705 420.079 179.256 416.443 181.073L406.714 186.004C403.078 187.821 401.628 192.232 403.445 195.867L479.406 347.725C481.208 351.238 485.635 352.81 489.272 350.993Z"
            fill="#E08B48" />
        <path
            d="M398.227 113.978C398.166 113.487 398.106 112.997 398.153 112.369L401.549 85.3119L404.944 58.2551C405.427 54.0878 410.276 51.9976 413.704 54.5633L432.393 68.8201C440.662 65.1887 449.802 63.5663 459.335 64.1362C468.884 64.8287 477.708 67.7265 485.378 72.3845L506.003 60.8844C509.61 58.8225 514.172 61.4976 514.18 65.6046L513.804 92.9123L513.55 120.205C513.488 120.711 513.441 121.339 513.241 121.737C513.284 123.101 513.189 124.357 513.11 125.736L506.605 213.549C504.427 245.435 476.879 269.488 444.983 267.313C413.088 265.137 389.03 237.599 391.208 205.713L397.728 118.023C397.808 116.644 398.01 115.249 398.227 113.978Z"
            fill="#F19E53" />
        <path d="M462.127 111.198L491.843 113.206L488.422 163.746L458.706 161.738L462.127 111.198Z" fill="#211816" />
        <path
            d="M458.855 97.6809C456.755 97.9393 454.843 96.4468 454.585 94.3474C454.326 92.2479 455.82 90.3365 457.92 90.0782C460.02 89.8198 461.932 91.3123 462.19 93.4117C462.448 95.5112 460.955 97.4226 458.855 97.6809Z"
            fill="black" />
        <path
            d="M490.382 99.9016C488.282 100.16 486.37 98.6675 486.112 96.5681C485.854 94.4686 487.347 92.5572 489.447 92.2989C491.547 92.0405 493.459 93.533 493.717 95.6324C493.975 97.7319 492.482 99.6433 490.382 99.9016Z"
            fill="black" />
        <path
            d="M468.959 120.089L483.642 121.021C484.899 121.116 486.02 120.106 486.114 118.85L486.413 115.203C486.507 113.947 485.498 112.826 484.241 112.732L469.557 111.8C468.301 111.705 467.18 112.715 467.085 113.971L466.787 117.618C466.692 118.874 467.702 119.995 468.959 120.089Z"
            fill="white" />
        <path
            d="M422.521 363.064L432.921 359.544C436.74 358.203 438.848 354.084 437.492 350.143L385.808 200.277C384.467 196.459 380.347 194.352 376.405 195.708L366.005 199.228C362.185 200.57 360.077 204.688 361.434 208.629L413.24 358.48C414.582 362.298 418.701 364.405 422.521 363.064Z"
            fill="#F4B359" />
        <path
            d="M255.656 165.626C274.985 150.675 288.703 143.759 298.648 145.648C305.283 146.948 309.183 151.323 307.775 158.094C306.876 162.934 303.053 166.268 298.633 168.803L302.912 175.248C309.497 171.077 314.028 166.411 315.546 158.507C317.653 147.293 311.737 138.685 300.781 136.672C289.044 134.381 275.096 141.45 260.205 151.996C261.193 148.887 262.104 145.164 262.739 142.223L265.727 127.042L257.56 125.433L249.941 164.711L255.656 165.626Z"
            fill="#F19E53" />
    </g>
    <g clip-path="url(#clip1)">
        <path
            d="M617.126 295.911C603.158 298.05 590.249 304.165 579.78 313.201L585.154 368.176C598.769 374.836 614.199 377.198 629.438 374.816C645.156 372.381 659.592 364.997 670.688 353.922L663.403 303.526C649.352 296.159 633.092 293.391 617.126 295.911Z"
            fill="url(#paint0_linear)" />
        <path
            d="M565.099 330.341L557.273 342.975C556.214 344.72 556.514 346.883 558.112 348.159L569.439 357.815C570.339 358.584 571.238 359.353 572.203 360.072L568.691 325.102C567.399 326.816 566.224 328.546 565.099 330.341Z"
            fill="url(#paint1_linear)" />
        <path
            d="M689.29 327.753C690.35 326.007 690.05 323.844 688.451 322.569L677.125 312.913C677.074 312.847 677.074 312.847 676.959 312.832L681.024 341.035C681.171 340.819 681.252 340.653 681.399 340.436L689.29 327.753Z"
            fill="url(#paint2_linear)" />
        <path
            d="M568.691 325.102L572.138 360.122C576.199 363.261 580.555 365.968 585.154 368.176L579.78 313.201C575.71 316.725 571.992 320.709 568.691 325.102Z"
            fill="white" />
        <path
            d="M663.403 303.526L670.687 353.922C674.572 350.019 678.105 345.656 681.155 340.934L677.09 312.731C672.793 309.148 668.253 306.063 663.403 303.526Z"
            fill="white" />
        <path d="M599.293 338.343L649.883 330.494" stroke="white" stroke-width="4" stroke-miterlimit="10"
            stroke-linecap="round" stroke-linejoin="round" />
        <path d="M604.138 330.794L606.188 344.102" stroke="white" stroke-width="4" stroke-miterlimit="10"
            stroke-linecap="round" stroke-linejoin="round" />
        <path d="M611.848 329.586L613.964 342.844" stroke="white" stroke-width="4" stroke-miterlimit="10"
            stroke-linecap="round" stroke-linejoin="round" />
        <path d="M619.674 328.394L621.725 341.701" stroke="white" stroke-width="4" stroke-miterlimit="10"
            stroke-linecap="round" stroke-linejoin="round" />
        <path d="M627.451 327.135L629.501 340.443" stroke="white" stroke-width="4" stroke-miterlimit="10"
            stroke-linecap="round" stroke-linejoin="round" />
        <path d="M635.161 325.927L637.328 339.251" stroke="white" stroke-width="4" stroke-miterlimit="10"
            stroke-linecap="round" stroke-linejoin="round" />
        <path d="M642.987 324.734L645.038 338.042" stroke="white" stroke-width="4" stroke-miterlimit="10"
            stroke-linecap="round" stroke-linejoin="round" />
    </g>
    <defs>
        <linearGradient id="paint0_linear" x1="618.873" y1="323.49" x2="641.483" y2="374.56"
            gradientUnits="userSpaceOnUse">
            <stop stop-color="#CA652C" />
            <stop offset="1" stop-color="#9B2C1A" />
        </linearGradient>
        <linearGradient id="paint1_linear" x1="567.469" y1="346.249" x2="590.079" y2="397.318"
            gradientUnits="userSpaceOnUse">
            <stop stop-color="#CA652C" />
            <stop offset="1" stop-color="#9B2C1A" />
        </linearGradient>
        <linearGradient id="paint2_linear" x1="671.177" y1="300.334" x2="693.787" y2="351.403"
            gradientUnits="userSpaceOnUse">
            <stop stop-color="#CA652C" />
            <stop offset="1" stop-color="#9B2C1A" />
        </linearGradient>
        <clipPath id="clip0">
            <rect width="476.675" height="350.264" fill="white"
                transform="matrix(-0.992517 0.122106 0.122106 0.992517 506.108 0)" />
        </clipPath>
        <clipPath id="clip1">
            <rect width="119.448" height="88.3664" fill="white" transform="translate(549 336.5) rotate(-37.3702)" />
        </clipPath>
    </defs>
</svg>