<svg width="49" height="149" viewBox="0 0 470 956" fill="none" xmlns="http://www.w3.org/2000/svg">
<path d="M243.2 956C362.604 956 459.4 906.035 459.4 844.4C459.4 782.765 362.604 732.8 243.2 732.8C123.796 732.8 27 782.765 27 844.4C27 906.035 123.796 956 243.2 956Z" fill="#617810"/>
<path d="M382.4 338.9C408.6 325.2 430.1 304.6 444.7 279.7L397.3 174.5C366 170.5 333.8 176 305.3 190.9C275.8 206.2 252.3 230.5 237.7 259.8L285.7 354.6C318.5 359.9 352.5 354.6 382.4 338.9Z" fill="url(#paint0_linear)"/>
<path d="M462.3 236L469.4 205.8C470.3 201.7 468.2 197.6 464.3 196.1L435.5 184.6C433.2 183.7 430.9 182.8 428.6 182L458.8 248.9C460.1 244.6 461.3 240.3 462.3 236Z" fill="url(#paint1_linear)"/>
<path d="M218.4 324.2C217.5 328.3 219.6 332.4 223.5 333.9L252.3 345.4C252.4 345.5 252.5 345.4 252.7 345.5L225.9 292.4C225.8 292.9 225.6 293.3 225.5 293.8L218.4 324.2Z" fill="url(#paint2_linear)"/>
<path d="M458.7 248.8L428.5 181.9C418.3 178.4 407.9 176 397.3 174.6L444.7 279.6C450.5 270 455.2 259.6 458.7 248.8Z" fill="white"/>
<path d="M285.7 354.7L237.7 259.9C232.6 270.2 228.5 281.2 225.8 292.6L252.6 345.7C263.4 349.8 274.6 352.8 285.7 354.7Z" fill="white"/>
<path d="M294.5 294.4C293.8 294.4 293.1 294 292.7 293.3C292.2 292.3 292.6 291.1 293.5 290.6L388.3 241.1C389.3 240.6 390.5 241 391 241.9C391.5 242.9 391.1 244.1 390.2 244.6L295.4 294.1C295.2 294.3 294.9 294.4 294.5 294.4Z" fill="white"/>
<path d="M384.8 263.2C384.1 263.2 383.4 262.8 383 262.1L370 237.2C369.5 236.2 369.9 235 370.8 234.5C371.8 234 373 234.4 373.5 235.3L386.5 260.2C387 261.2 386.6 262.4 385.7 262.9C385.4 263.1 385.1 263.2 384.8 263.2Z" fill="white"/>
<path d="M370.3 270.8C369.6 270.8 368.9 270.4 368.5 269.7L355.5 244.8C355 243.8 355.4 242.6 356.3 242.1C357.3 241.6 358.5 242 359 242.9L372 267.8C372.5 268.8 372.1 270 371.2 270.5C370.9 270.7 370.6 270.8 370.3 270.8Z" fill="white"/>
<path d="M355.8 278.4C355.1 278.4 354.4 278 354 277.3L341 252.4C340.5 251.4 340.9 250.2 341.8 249.7C342.8 249.2 344 249.6 344.5 250.5L357.5 275.4C358 276.4 357.6 277.6 356.7 278.1C356.4 278.3 356.1 278.4 355.8 278.4Z" fill="white"/>
<path d="M341.1 286C340.4 286 339.7 285.6 339.3 284.9L326.4 259.9C325.9 258.9 326.3 257.7 327.3 257.2C328.3 256.7 329.5 257.1 330 258.1L342.9 283.1C343.4 284.1 343 285.3 342 285.8C341.7 285.9 341.4 286 341.1 286Z" fill="white"/>
<path d="M326.6 293.5C325.9 293.5 325.2 293.1 324.8 292.4L311.8 267.5C311.3 266.5 311.7 265.3 312.6 264.8C313.6 264.3 314.8 264.7 315.3 265.6L328.3 290.5C328.8 291.5 328.4 292.7 327.5 293.2C327.2 293.5 326.9 293.5 326.6 293.5Z" fill="white"/>
<path d="M312.1 301.1C311.4 301.1 310.7 300.7 310.3 300L297.3 275.1C296.8 274.1 297.2 272.9 298.1 272.4C299.1 271.9 300.3 272.3 300.8 273.2L313.8 298.1C314.3 299.1 313.9 300.3 313 300.8C312.7 301.1 312.4 301.1 312.1 301.1Z" fill="white"/>
<path d="M130.7 630.6C142.4 630.2 151.4 633.4 157.6 636.9L154.6 629.7L166.3 505.8L84.7 501.6L96.6 628.3V641.6L98.3 651C104 643 114.9 631.2 130.7 630.6Z" fill="#FFD6AE"/>
<path d="M184.9 703.1L157.7 636.9C151.5 633.4 142.5 630.2 130.8 630.6C114.9 631.2 104 643 98.3 651L109.8 714.7L184.9 703.1Z" fill="#7479F8"/>
<path d="M190 187.1C144 187.1 106.8 149.8 106.8 103.9V136.6C106.8 182.6 144.1 219.8 190 219.8C236 219.8 273.2 182.5 273.2 136.6V103.9C273.2 149.9 235.9 187.1 190 187.1Z" fill="#FFE59C"/>
<path d="M190 0C136.4 0 93 39.5 93 88.1V104.3C93 153 136.4 192.4 190 192.4C243.6 192.4 287 152.9 287 104.3V88.1C287 39.5 243.5 0 190 0Z" fill="#343434"/>
<path d="M314.7 641.1L261.2 640.4L210 496.4L320.5 514.4L314.7 641.1Z" fill="#FFD6AE"/>
<path d="M222.6 597L221.6 595C221.9 595.7 222.2 596.4 222.6 597Z" fill="#4C2B0D"/>
<path d="M332.5 572L331 572.4C331.5 572.4 332 572.2 332.5 572Z" fill="#4C2B0D"/>
<path d="M91.2 607.3C88.2 607.3 85.7 605.4 84.7 602.7L91.2 607.3Z" fill="#BE0002"/>
<path d="M228.3 600C228.7 600 229.1 600 229.6 599.9L222.6 597.1C223.9 598.8 226 600 228.3 600Z" fill="#BE0002"/>
<path d="M84.6999 602.7L84.2999 601.2C84.3999 601.7 84.4999 602.2 84.6999 602.7Z" fill="#B6E263"/>
<path d="M336.8 564.7L336.6 563.6L321.2 490.9L320.7 483.6C289.7 468.7 242.6 459.3 189.9 459.3C137.2 459.3 90.1 468.8 59.1 483.6L58.6 490.9L84.2 601.2L84.6 602.7C85.5 605.4 88.1 607.3 91.1 607.3H178C181.7 607.3 184.7 604.4 184.9 600.8V600V519.8L221.7 595L222.7 597L229.7 599.8L230.8 599.5L331.1 572.4L332.6 572C335.2 571 337 568.5 337 565.5C336.9 565.3 336.8 565 336.8 564.7Z" fill="#EDE2B4"/>
<path d="M149.1 822.1C125.5 822.1 106.3 802.9 106.3 779.3V720.4C106.3 696.8 125.5 677.6 149.1 677.6C172.7 677.6 191.9 696.8 191.9 720.4V779.3C191.9 803 172.8 822.1 149.1 822.1Z" fill="#757575"/>
<path d="M149.1 832.3C125.5 832.3 106.3 813.1 106.3 789.5V730.6C106.3 707 125.5 687.8 149.1 687.8C172.7 687.8 191.9 707 191.9 730.6V789.5C191.9 813.2 172.8 832.3 149.1 832.3Z" fill="#969696"/>
<path d="M176.6 731.8H121.5V733.8H176.6V731.8Z" fill="#757575"/>
<path d="M176.6 755.8H121.5V757.8H176.6V755.8Z" fill="#757575"/>
<path d="M176.6 779.8H121.5V781.8H176.6V779.8Z" fill="#757575"/>
<path d="M362.772 899.806C384.792 885.954 389.077 853.161 372.343 826.559C355.609 799.958 324.193 789.623 302.174 803.474C280.154 817.326 275.869 850.12 292.603 876.721C309.337 903.322 340.752 913.658 362.772 899.806Z" fill="#757575"/>
<path d="M361.736 886.782C383.756 872.93 388.041 840.136 371.307 813.535C354.573 786.934 323.158 776.598 301.138 790.45C279.118 804.302 274.833 837.095 291.567 863.697C308.301 890.298 339.717 900.633 361.736 886.782Z" fill="#969696"/>
<path d="M323.4 675.5L309.5 621.7L259.2 634.8L273.8 694.7C279.9 684.9 294.5 669 323.4 675.5Z" fill="#FFD6AE"/>
<path d="M368.3 849.9L323.4 675.5C294.5 669 279.9 684.9 273.9 694.7L307.4 832.3L312.5 866.5C312.5 866.5 320.6 891.4 347.9 881.1C375.2 870.8 368.3 849.9 368.3 849.9Z" fill="#7479F8"/>
<path d="M312.4 706C319.5 705 326.3 706.9 332.7 711.5L331.9 708.6C325.7 704.7 319 703.1 312.1 704.1C298.5 705.9 287.1 716.6 280.9 723.6L281.5 726C287.3 719.2 298.9 707.8 312.4 706Z" fill="white"/>
<path d="M138.3 645.3C147.3 644.5 156.1 647.2 164.3 653.2L162.9 649.8C155 644.7 146.8 642.6 138.2 643.3C120.8 644.8 106.8 657.8 100.8 664.4L101.3 666.9C106.4 661.1 120.7 646.8 138.3 645.3Z" fill="white"/>
<path d="M408.4 386.2C395.9 400 374.6 401.1 360.8 388.7L306.2 339.5C292.4 327 291.3 305.7 303.7 291.9C316.2 278.1 337.5 277 351.3 289.4L405.9 338.6C419.7 351.1 420.8 372.4 408.4 386.2Z" fill="#FFD6AE"/>
<path d="M53.4 444.8C34.8 444.8 19.7 429.7 19.7 411.1V285.8C19.7 267.2 34.8 252.1 53.4 252.1C72 252.1 87.0999 267.2 87.0999 285.8V411.1C87.0999 429.8 72 444.8 53.4 444.8Z" fill="#FFD6AE"/>
<path d="M379.9 298.7C379.9 298.7 338.9 261.9 334.4 247C334.3 246.6 334.1 246.1 334 245.7C333.8 245.2 333.8 244.9 333.8 244.9L333.6 244.3C325.2 219.5 301.7 201.7 274.1 201.7H206.3H173.6H105.8C80.6 201.7 58.9 216.5 48.9 237.9L48.8 238.1C47.9 240.1 47 242.2 46.3 244.4L0 288.5C0 288.5 43.5 357.8 66.9 361L59.2 483.6C90.2 468.7 137.3 459.3 190 459.3C242.7 459.3 289.8 468.8 320.8 483.6L313 361.3C332.4 357.6 371.1 301.6 379.9 298.7Z" fill="#4759FE"/>
<path d="M125.7 328.8C125.7 297.6 137.9 282.4 156.3 282.4C174.6 282.4 186.7 297.7 186.7 328.8C186.7 359.8 174.5 375.9 156.3 375.9C137.9 375.9 125.7 359.9 125.7 328.8ZM169.8 328.8C169.8 303.6 164 296.3 156.3 296.3C148.5 296.3 142.7 303.6 142.7 328.8C142.7 354.1 148.5 361.9 156.3 361.9C164 361.9 169.8 354.1 169.8 328.8Z" fill="white"/>
<path d="M238.7 299.1H198.2V284.1H258.1V295C237.2 320.6 234.4 339 232.9 374.3H214.8C216.3 342.9 221.6 323 238.7 299.1Z" fill="white"/>
<defs>
<linearGradient id="paint0_linear" x1="361.029" y1="285.938" x2="282.204" y2="200.028" gradientUnits="userSpaceOnUse">
<stop stop-color="#CA652C"/>
<stop offset="1" stop-color="#9B2C1A"/>
</linearGradient>
<linearGradient id="paint1_linear" x1="447.51" y1="206.589" x2="368.684" y2="120.679" gradientUnits="userSpaceOnUse">
<stop stop-color="#CA652C"/>
<stop offset="1" stop-color="#9B2C1A"/>
</linearGradient>
<linearGradient id="paint2_linear" x1="273.098" y1="366.619" x2="194.272" y2="280.708" gradientUnits="userSpaceOnUse">
<stop stop-color="#CA652C"/>
<stop offset="1" stop-color="#9B2C1A"/>
</linearGradient>
</defs>
</svg>
