<svg width="34" height="60" viewBox="0 0 323 480" fill="none" xmlns="http://www.w3.org/2000/svg">
<g clip-path="url(#clip0)">
<path d="M161.3 479.1C250.384 479.1 322.6 461.55 322.6 439.9C322.6 418.251 250.384 400.7 161.3 400.7C72.2165 400.7 0 418.251 0 439.9C0 461.55 72.2165 479.1 161.3 479.1Z" fill="#617810"/>
<path d="M221.6 209L198.1 145.1L228.4 147L232.8 209" fill="white"/>
<path d="M226.5 209.4L222.7 141.4L251.1 152.1L237.2 212.7" fill="#EAEAEA"/>
<path d="M222.1 206.1L255.4 146.7L273.6 170.9L229.4 214.6" fill="white"/>
<path d="M119 443.4L79.5 443.2C75.8 443.2 72.8 440.2 72.9 436.5C72.9 432.8 75.9 429.8 79.6 429.9L109.3 430.1L124.9 382.4C126 378.9 129.8 377 133.3 378.1C136.8 379.2 138.7 383 137.6 386.5L119 443.4Z" fill="#FFFA43"/>
<path d="M248.6 445.9C249.7 444.9 250.5 443.5 250.7 441.9C251.2 438.2 248.6 434.9 245 434.4L215.6 430.4L206.9 381C206.3 377.4 202.8 374.9 199.2 375.6C195.6 376.2 193.1 379.7 193.8 383.3L204.2 442.3L243.3 447.6C245.2 447.9 247.2 447.2 248.6 445.9Z" fill="#FFFA43"/>
<path d="M181.6 360.9C181.6 360.9 189.1 405.7 198.1 406.4C207.1 407.1 213.1 407.5 218 393.4C222.8 379.4 224.8 338.9 224.8 338.9" fill="#444740"/>
<path d="M155.7 141.6C89.1 147.4 39.9 206.1 45.8 272.7C49.8 318.1 78.4 355.4 117.3 372.7C114.4 384.5 112.4 397.5 116.3 400C123.9 404.9 129.1 408 139.9 397.9C143.4 394.6 148 388.7 152.6 382.3C160.5 383.2 168.6 383.3 176.9 382.6C243.5 376.8 292.7 318.1 286.8 251.5C280.9 184.9 222.3 135.8 155.7 141.6Z" fill="#444740"/>
<path d="M172.9 240.3C149.4 240.3 130.4 221.3 130.4 197.8V42.5C130.4 19 149.4 0 172.9 0C196.4 0 215.4 19 215.4 42.5V197.8C215.4 221.3 196.4 240.3 172.9 240.3Z" fill="white"/>
<path d="M155.6 48.5998C158.03 48.5998 160 46.6299 160 44.1998C160 41.7698 158.03 39.7998 155.6 39.7998C153.17 39.7998 151.2 41.7698 151.2 44.1998C151.2 46.6299 153.17 48.5998 155.6 48.5998Z" fill="#444740"/>
<path d="M190.3 48.5998C192.73 48.5998 194.7 46.6299 194.7 44.1998C194.7 41.7698 192.73 39.7998 190.3 39.7998C187.87 39.7998 185.9 41.7698 185.9 44.1998C185.9 46.6299 187.87 48.5998 190.3 48.5998Z" fill="#444740"/>
<path d="M160 66.0999C160 66.0999 163.3 55.8999 173.5 55.8999C183.7 55.8999 186.3 68.6999 186.3 68.6999C186.3 68.6999 186.1 72.5999 181.4 72.7999C177.3 72.8999 175.2 85.7999 171.8 82.4999C168.4 79.1999 168.7 72.2999 164.4 72.2999C160.1 72.2999 158.6 68.9999 160 66.0999Z" fill="#FFFA43"/>
</g>
<defs>
<clipPath id="clip0">
<rect width="322.6" height="479.1" fill="white"/>
</clipPath>
</defs>
</svg>
