<svg width="150" height="250" viewBox="0 0 220 633" fill="none" xmlns="http://www.w3.org/2000/svg">
<path d="M110 633C170.751 633 220 547.704 220 442.487C220 337.269 170.751 251.973 110 251.973C49.2487 251.973 0 337.269 0 442.487C0 547.704 49.2487 633 110 633Z" fill="#617810"/>
<path d="M185.681 211.979H156.1V555.312H185.681V211.979Z" fill="#FFB243"/>
<path d="M60.8265 211.979H31.2456V555.312H60.8265V211.979Z" fill="#FFB243"/>
<path d="M31.2456 344.355V160.23C31.2456 116.787 66.461 81.6484 110 81.6484C153.539 81.6484 188.754 116.787 188.754 160.23V344.355C188.754 387.799 153.539 422.937 110 422.937C66.589 422.937 31.2456 387.799 31.2456 344.355Z" fill="#EDEDED"/>
<path d="M189.139 327.105C189.267 326.466 189.395 325.7 189.395 324.933L187.346 287.75L185.297 250.568C184.913 244.818 178.51 241.624 173.772 244.69L146.752 262.323C135.867 256.701 123.446 253.507 110.384 253.507C97.3224 253.507 84.901 256.701 74.0163 262.323L46.9965 244.69C42.1304 241.496 35.7276 244.818 35.4714 250.568L33.4226 287.75L31.3737 324.933C31.3737 325.7 31.3737 326.466 31.6298 327.105C31.5017 328.894 31.3737 330.811 31.3737 332.6V383.454C31.3737 427.154 66.8451 462.547 110.64 462.547C154.435 462.547 189.907 427.154 189.907 383.454V332.6C189.267 330.811 189.267 328.894 189.139 327.105Z" fill="#FF9B40"/>
<path d="M126.135 416.42H93.9929C91.5599 416.42 89.639 414.504 89.639 412.076V341.544C89.639 339.116 91.5599 337.199 93.9929 337.199H126.135C128.568 337.199 130.489 339.116 130.489 341.544V412.076C130.489 414.504 128.44 416.42 126.135 416.42Z" fill="#231815"/>
<path d="M131.77 319.183C134.669 319.183 137.02 316.838 137.02 313.945C137.02 311.051 134.669 308.706 131.77 308.706C128.87 308.706 126.519 311.051 126.519 313.945C126.519 316.838 128.87 319.183 131.77 319.183Z" fill="black"/>
<path d="M88.3586 319.183C91.2582 319.183 93.6089 316.838 93.6089 313.945C93.6089 311.051 91.2582 308.706 88.3586 308.706C85.4589 308.706 83.1083 311.051 83.1083 313.945C83.1083 316.838 85.4589 319.183 88.3586 319.183Z" fill="black"/>
<path d="M122.421 348.572H97.7066C97.0663 348.572 96.6821 348.061 96.6821 347.549V338.35C96.6821 337.711 97.1944 337.327 97.7066 337.327H122.421C123.062 337.327 123.446 337.838 123.446 338.35V347.549C123.446 348.188 122.934 348.572 122.421 348.572Z" fill="white"/>
<path d="M155.588 168.792C136.636 185.53 126.775 197.924 126.775 208.53C126.775 215.557 130.489 220.285 137.66 220.285C142.782 220.285 146.88 217.091 150.338 213.13L155.972 218.752C150.466 224.629 144.831 228.335 136.38 228.335C124.598 228.335 117.043 220.668 117.043 209.041C117.043 196.647 126.903 183.869 140.605 170.836C137.276 171.219 133.306 171.475 130.105 171.475H113.97V162.914H155.46V168.792H155.588Z" fill="#FF9B40"/>
<path d="M75.0408 218.624H105.262V227.057H63.8999V220.924C79.0105 202.141 81.3155 187.958 82.468 162.914H92.8405C91.56 186.425 87.4622 201.374 75.0408 218.624Z" fill="#FF9B40"/>
<path d="M108.719 106.948C103.469 106.948 99.2433 102.732 99.2433 97.4927V9.45539C99.2433 4.21659 103.469 0 108.719 0C113.97 0 118.196 4.21659 118.196 9.45539V97.365C118.196 102.604 113.97 106.948 108.719 106.948Z" fill="#FF9B40"/>
</svg>
