<svg width="88" height="63" viewBox="0 0 410 339" fill="none" xmlns="http://www.w3.org/2000/svg">
<path d="M202.27 339C290.312 339 361.684 311.521 361.684 277.624C361.684 243.728 290.312 216.249 202.27 216.249C114.228 216.249 42.8562 243.728 42.8562 277.624C42.8562 311.521 114.228 339 202.27 339Z" fill="#617810"/>
<path d="M232.843 166.083L230.386 166.766C223.153 168.816 219.058 176.335 221.105 183.443L250.313 285.69L278.702 277.625L249.494 175.378C247.447 168.133 239.94 164.032 232.843 166.083Z" fill="#D3CBA9"/>
<path d="M252.36 293.071C254.408 300.316 261.914 304.416 269.011 302.366L271.468 301.683C278.702 299.632 282.796 292.114 280.749 285.006L278.702 277.625L250.313 285.689L252.36 293.071Z" fill="#726251"/>
<path d="M178.931 166.083L181.388 166.766C188.622 168.816 192.716 176.335 190.669 183.443L161.461 285.69L133.073 277.625L162.28 175.378C164.191 168.133 171.698 164.032 178.931 166.083Z" fill="#D3CBA9"/>
<path d="M159.278 293.071C157.23 300.316 149.724 304.416 142.627 302.366L140.17 301.683C132.936 299.632 128.842 292.114 130.889 285.006L132.936 277.625L161.325 285.689L159.278 293.071Z" fill="#726251"/>
<path d="M410 185.357L357.044 183.853C357.863 187.817 358.409 191.781 358.955 195.745L410 185.357Z" fill="#FF9494"/>
<path d="M313.232 30.7559L278.019 74.0877C282.114 76.4115 286.072 78.872 289.893 81.6059L313.232 30.7559Z" fill="#FF9494"/>
<path d="M346.671 102.93L368.782 81.1958L345.579 94.5918L320.466 109.081C323.469 112.635 326.471 116.326 329.201 120.017L346.671 102.93Z" fill="#FF9494"/>
<path d="M279.521 13.9429L253.043 62.4691C257.41 64.1094 261.778 65.8864 265.872 67.8001L279.521 13.9429Z" fill="#FF9494"/>
<path d="M336.571 63.0158L343.259 53.4473L335.343 60.1453L300.676 89.6711C304.361 92.6783 307.773 95.8223 311.185 99.1029L336.571 63.0158Z" fill="#FF9494"/>
<path d="M345.306 142.571L388.845 113.319L347.081 128.082L336.844 131.636C339.164 135.6 341.485 139.701 343.532 143.802L345.306 142.571Z" fill="#FF9494"/>
<path d="M243.216 3.5542L226.292 55.2244C230.796 56.0445 235.3 57.0014 239.667 58.2316L243.216 3.5542Z" fill="#FF9494"/>
<path d="M402.766 148.312L349.128 156.651C350.766 160.888 352.267 165.126 353.495 169.5L402.766 148.312Z" fill="#FF9494"/>
<path d="M7.50671 146.946L43.9481 163.349C45.04 160.068 46.2684 156.924 47.4967 153.78L7.50671 146.946Z" fill="#FF9494"/>
<path d="M75.0666 59.0515L67.5599 52.4902L73.8382 61.7854L93.6285 90.7644C96.6312 88.3039 99.7703 85.8435 102.909 83.5197L75.0666 59.0515Z" fill="#FF9494"/>
<path d="M64.5572 93.4985L41.9008 79.9658L63.4653 101.7L73.0193 111.405C75.476 108.535 77.9327 105.664 80.5259 102.93L64.5572 93.4985Z" fill="#FF9494"/>
<path d="M21.701 111.952L56.2317 135.874C58.006 132.73 59.7803 129.722 61.8275 126.715L21.701 111.952Z" fill="#FF9494"/>
<path d="M0 183.853L37.2603 192.055C37.6698 189.184 38.2157 186.313 38.7617 183.443L0 183.853Z" fill="#FF9494"/>
<path d="M205.682 0L198.585 52.7637C203.089 52.7637 207.593 53.0371 212.097 53.4472L205.682 0Z" fill="#FF9494"/>
<path d="M97.8595 29.936L117.377 74.0881C120.925 72.0376 124.61 70.1239 128.296 68.3469L97.8595 29.936Z" fill="#FF9494"/>
<path d="M168.149 3.28076L170.742 55.0876C174.973 54.4041 179.341 53.8574 183.845 53.4473L168.149 3.28076Z" fill="#FF9494"/>
<path d="M131.844 13.396L143.309 62.1956C147.267 60.8287 151.362 59.4617 155.456 58.3682L131.844 13.396Z" fill="#FF9494"/>
<path d="M205 260.401C251.268 260.401 292.487 238.257 318.555 203.947L358.955 195.745C358.409 191.781 357.863 187.817 357.044 183.853L331.658 183.169L322.786 182.896L334.115 177.975L353.495 169.637C352.267 165.262 350.766 160.888 349.128 156.787L341.758 158.018L316.508 161.982L343.395 143.938C341.348 139.837 339.164 135.737 336.708 131.773L306.408 142.435L329.065 120.29C326.335 116.463 323.469 112.772 320.33 109.355L293.033 125.075L311.185 99.1028C307.773 95.8221 304.361 92.6782 300.676 89.6709L276.791 110.038L289.893 81.606C286.072 79.0088 282.114 76.4116 278.019 74.0878L258.093 98.556L265.872 67.7999C261.641 65.8862 257.41 64.1092 253.043 62.4689L237.62 90.6278L239.667 58.2314C235.3 57.0011 230.796 56.0443 226.292 55.2241L216.055 86.527L212.097 53.3104C207.593 52.9003 203.226 52.7636 198.585 52.627L194.081 86.3903L183.708 53.1737C179.341 53.5838 174.973 54.1306 170.606 54.814L172.38 90.3544L155.456 58.2314C151.361 59.3249 147.267 60.5552 143.309 62.0588L151.907 98.2826L128.296 68.4834C124.61 70.2604 120.925 72.1741 117.377 74.2245L133.209 110.038L102.909 83.5197C99.7703 85.8435 96.6311 88.304 93.6284 90.7645L116.694 124.664L80.5259 103.067C77.9327 105.801 75.476 108.535 73.0193 111.542L103.455 142.161L62.7829 127.125L61.691 126.715C59.7802 129.722 57.8695 132.729 56.0951 135.873L64.4207 141.614L93.219 161.572L67.9693 157.198L47.4966 153.643C46.2683 156.787 45.0399 159.931 43.948 163.212L75.6125 177.428L87.0772 182.623L78.2057 182.759L38.6251 183.306C38.0792 186.177 37.5332 189.047 37.1238 191.918L91.4447 203.81C117.513 238.257 158.732 260.401 205 260.401Z" fill="#FFF9E1"/>
<path d="M231.614 203.264C235.436 201.077 238.029 196.976 238.029 192.328C238.029 185.494 232.433 179.889 225.609 179.889C220.15 179.889 215.509 183.443 213.871 188.227C208.549 185.767 211.278 194.925 205 194.925C198.722 194.925 206.501 189.594 201.178 192.055C199.541 187.134 194.9 183.717 189.441 183.717C182.616 183.717 183.708 184.81 183.708 191.645C183.708 196.429 179.614 205.041 183.435 207.091C178.931 213.789 162.69 203.537 162.69 212.149C162.69 235.523 181.661 254.524 205 254.524C228.339 254.524 247.31 235.523 247.31 212.149C247.31 203.4 236.118 209.962 231.614 203.264Z" fill="#D8CEA3"/>
<path d="M205 245.638C231.533 245.638 253.043 224.096 253.043 197.522C253.043 170.949 231.533 149.406 205 149.406C178.467 149.406 156.957 170.949 156.957 197.522C156.957 224.096 178.467 245.638 205 245.638Z" fill="white"/>
<path d="M223.289 204.494C225.701 204.494 227.656 202.536 227.656 200.12C227.656 197.704 225.701 195.746 223.289 195.746C220.877 195.746 218.921 197.704 218.921 200.12C218.921 202.536 220.877 204.494 223.289 204.494Z" fill="black"/>
<path d="M186.711 204.494C189.123 204.494 191.079 202.536 191.079 200.12C191.079 197.704 189.123 195.746 186.711 195.746C184.299 195.746 182.344 197.704 182.344 200.12C182.344 202.536 184.299 204.494 186.711 204.494Z" fill="black"/>
<path d="M205 211.192C208.467 211.192 211.278 209.784 211.278 208.048C211.278 206.311 208.467 204.904 205 204.904C201.533 204.904 198.722 206.311 198.722 208.048C198.722 209.784 201.533 211.192 205 211.192Z" fill="black"/>
<path d="M195.719 235.113L194.764 234.02L204.318 225.682V209.142H205.682V226.365L195.719 235.113Z" fill="black"/>
<path d="M205.412 225.593L204.557 226.659L214.242 234.446L215.097 233.38L205.412 225.593Z" fill="black"/>
<path d="M238.166 172.644C246.005 172.644 252.36 166.279 252.36 158.428C252.36 150.577 246.005 144.212 238.166 144.212C230.326 144.212 223.971 150.577 223.971 158.428C223.971 166.279 230.326 172.644 238.166 172.644Z" fill="white"/>
<path d="M238.166 164.169C241.332 164.169 243.898 161.599 243.898 158.428C243.898 155.257 241.332 152.687 238.166 152.687C235 152.687 232.433 155.257 232.433 158.428C232.433 161.599 235 164.169 238.166 164.169Z" fill="#847A6A"/>
<path d="M171.834 172.644C179.674 172.644 186.029 166.279 186.029 158.428C186.029 150.577 179.674 144.212 171.834 144.212C163.995 144.212 157.64 150.577 157.64 158.428C157.64 166.279 163.995 172.644 171.834 172.644Z" fill="white"/>
<path d="M171.834 164.169C175 164.169 177.567 161.599 177.567 158.428C177.567 155.257 175 152.687 171.834 152.687C168.668 152.687 166.102 155.257 166.102 158.428C166.102 161.599 168.668 164.169 171.834 164.169Z" fill="#847A6A"/>
</svg>
