<svg width="1920" height="1080" viewBox="0 0 1920 1080" fill="none" xmlns="http://www.w3.org/2000/svg">
<path d="M1920 0H0V1080H1920V0Z" fill="#757575"/>
<path d="M1920 741.7H0V1080H1920V741.7Z" fill="#595959"/>
<g opacity="0.7">
<path opacity="0.8" d="M1211.6 269.7L1109.2 0H827.3L724.9 269.7L487.3 895.6C482.3 900.5 479.7 905.6 479.7 910.7C479.7 957.8 697.6 996 966.4 996C1235.2 996 1453.1 957.8 1453.1 910.7H1455L1211.6 269.7Z" fill="white"/>
</g>
<path d="M570.201 876.1C570.201 876.1 602.101 807.2 673.901 826.4C745.701 845.6 1023.3 821.6 1068.9 804.6C1114.5 787.6 1236.7 792.2 1269.9 804.6C1303.1 817 1371.8 820.9 1363.4 848.9C1353.4 882.4 1211.8 922.3 1040.9 913C864.701 903.4 735.201 919.6 715.1 913.3C695 907 569.101 914 570.201 876.1Z" fill="#898989"/>
<path d="M1177.4 692.3C1175.9 689.8 1174.7 687.3 1174 684.6L1128.7 746.1L1025.3 793.3L1041.8 829.4L1143.5 786.4L1152.5 778.9L1204.7 706.3C1194.1 706.9 1183.5 701.9 1177.4 692.3Z" fill="#FFD6AE"/>
<path d="M1181.1 687.4C1179.6 684.9 1178.4 682.4 1177.7 679.7L1174.1 684.6C1174.9 687.3 1176 689.8 1177.5 692.3C1183.5 701.9 1194.1 706.9 1204.7 706.3L1208.2 701.4C1197.6 702 1187.1 697 1181.1 687.4Z" fill="#DBA477"/>
<path d="M1188.1 642.3C1183.5 645.2 1179.9 649 1177.4 653.3C1172.9 660.9 1171.7 670.1 1174.2 678.8C1175 681.7 1176.3 684.5 1177.9 687.1C1184.4 697.5 1195.9 702.9 1207.3 702.3C1212.6 702 1217.9 700.4 1222.7 697.4C1225.3 695.8 1227.5 693.9 1229.5 691.7C1239.1 681.2 1240.9 665.2 1232.9 652.5C1223.4 637.3 1203.3 632.7 1188.1 642.3Z" fill="#FFD6AE"/>
<path d="M1086.5 804.9L1086.2 803.7C1084.1 794.2 1090.1 784.9 1099.6 782.8L1136.1 774.8C1145.6 772.7 1154.9 778.7 1157 788.2L1157.3 789.4C1159.4 798.9 1153.4 808.2 1143.9 810.3L1107.4 818.3C1098 820.3 1088.6 814.4 1086.5 804.9Z" fill="#F9B882"/>
<path d="M1276.6 753.1C1268.2 715.1 1233.4 690.5 1198.9 698.1L1187.4 700.6C1152.9 708.2 1131.7 745.2 1140 783.2C1148.4 821.2 1183.2 845.8 1217.7 838.2L1229.2 835.7C1263.8 828.1 1285 791.1 1276.6 753.1Z" fill="#474441"/>
<path d="M1256.3 757.6C1249.1 724.7 1215.2 704.3 1180.7 711.9L1169.2 714.4C1134.7 722 1112.6 754.8 1119.8 787.7C1127 820.6 1160.9 841 1195.4 833.4L1206.9 830.9C1241.5 823.3 1263.6 790.4 1256.3 757.6Z" fill="#FFD6AE"/>
<path d="M1264.1 753.8C1264.1 753.8 1214.8 761.1 1216.7 797.2C1218.6 833.2 1222.8 833.7 1222.8 833.7C1222.8 833.7 1282.1 809.2 1264.1 753.8Z" fill="#474441"/>
<path d="M1159.1 716.6C1159.1 716.6 1239.8 763.1 1260.1 756.8C1280.4 750.5 1226.3 710.3 1226.3 710.3C1226.3 710.3 1175.3 707.2 1167.2 711.9" fill="#474441"/>
<path d="M1201.7 801.4C1201.1 801.5 1200.4 801.5 1199.7 801.1C1198.3 800.4 1197.7 798.6 1198.5 797.2L1204.9 785C1205.6 783.6 1207.4 783 1208.8 783.8C1210.2 784.5 1210.8 786.3 1210 787.7L1203.6 799.9C1203.2 800.7 1202.5 801.2 1201.7 801.4Z" fill="#474441"/>
<path d="M1221.7 830.1C1221.3 830.2 1221 830.2 1220.6 830.1L1210.2 827.1C1209 826.8 1208.3 825.5 1208.6 824.3C1208.9 823.1 1210.2 822.4 1211.4 822.7L1221.8 825.7C1223 826 1223.7 827.3 1223.4 828.5C1223.2 829.4 1222.5 830 1221.7 830.1Z" fill="#474441"/>
<path d="M1185 826.6L1172.6 829.3C1169.1 830.1 1165.7 827.9 1164.9 824.4L1164.8 824C1164 820.5 1166.2 817.1 1169.7 816.3L1182.1 813.6C1185.6 812.8 1189 815 1189.8 818.5L1189.9 818.9C1190.7 822.4 1188.5 825.8 1185 826.6Z" fill="#474441"/>
<path d="M1259.6 822.7C1259.6 819.8 1260 817 1260.8 814.4L1189.7 842.3L1077 827.1L1071.7 866.4L1180.7 884.1L1192.3 882.6L1275.2 849C1265.9 843.9 1259.6 834 1259.6 822.7Z" fill="#FFD6AE"/>
<path d="M1265.3 820.4C1265.3 817.5 1265.7 814.7 1266.5 812.1L1260.8 814.3C1260 817 1259.6 819.8 1259.6 822.6C1259.6 833.9 1265.9 843.8 1275.2 848.9L1280.8 846.6C1271.5 841.6 1265.3 831.7 1265.3 820.4Z" fill="#DBA477"/>
<path d="M1295.2 786C1289.8 786 1284.7 787.3 1280.3 789.6C1272.5 793.7 1266.5 800.8 1264 809.4C1263.2 812.3 1262.7 815.3 1262.7 818.4C1262.7 830.7 1269.5 841.4 1279.5 846.9C1284.2 849.5 1289.5 850.9 1295.2 850.9C1298.2 850.9 1301.2 850.5 1304 849.7C1317.7 845.9 1327.8 833.3 1327.8 818.4C1327.8 800.6 1313.2 786 1295.2 786Z" fill="#FFD6AE"/>
<path d="M1105.6 836.7C1092.3 833.4 1079.1 829.8 1079.1 829.8C1074.5 827.7 1069.3 826.5 1063.9 826.5C1044 826.5 1027.8 842.7 1027.8 862.6C1027.8 867.4 1028.7 872 1030.4 876.2L1065.9 868.4C1084.1 864.3 1098.3 852.2 1105.6 836.7Z" fill="#2739A8"/>
<path d="M1057.5 889.8C1073.2 896 1095.8 903.5 1095.8 903.5L1131.7 834.3C1121.5 832.9 1080.9 821.9 1080.9 821.9C1076.3 819.8 1071.1 818.6 1065.7 818.6C1045.8 818.6 1029.6 834.8 1029.6 854.7C1029.6 866.2 1035 876.4 1043.3 883C1043.5 883.2 1043.8 883.5 1044.2 883.7C1048.1 886.6 1052.6 888.7 1057.5 889.8Z" fill="#4759FE"/>
<path d="M1109.8 799.6C1103 768.5 1072.2 748.9 1041.1 755.7L1005.3 763.6L1008.1 801.9L1000.3 802.5C980.701 788.7 967.201 787.7 941.501 788.5L940.501 775.4C963.201 774.9 978.001 777.6 996.201 788.7L994.501 766L970.701 771.2L927.301 769.5C895.501 768.3 868.701 793.1 867.501 824.9C866.301 856.7 891.101 883.5 922.901 884.7L968.201 886.4L990.601 884.8L1030.3 876C1028.6 871.8 1027.7 867.2 1027.7 862.4C1027.7 842.5 1043.9 826.3 1063.8 826.3C1069.2 826.3 1074.4 827.5 1079 829.6C1079 829.6 1092.2 833.2 1105.5 836.5C1110.9 825.6 1112.7 812.6 1109.8 799.6Z" fill="#4759FE"/>
<path d="M940.701 775.4L941.701 788.5C967.401 787.7 980.801 788.7 1000.5 802.5L1008.3 801.9L1005.5 763.6L994.801 766L996.501 788.7C978.201 777.6 963.401 774.9 940.701 775.4Z" fill="white"/>
<path d="M712.4 872.9L716.3 824.4L804.4 802.5L817.6 856L712.4 872.9Z" fill="#FFD6AE"/>
<path d="M624.301 776.6L664.001 744.7L716.301 824.4L712.401 872.9L624.301 776.6Z" fill="#7479F8"/>
<path d="M639.701 795.9L661.401 772.3C672.801 759.9 671.901 740.7 659.501 729.3L658.701 728.6L596.001 797L596.801 797.7C609.101 809.1 628.401 808.2 639.701 795.9Z" fill="#C1C0BF"/>
<path d="M595.971 796.928L658.704 728.543L649.493 720.093L586.76 788.478L595.971 796.928Z" fill="#898989"/>
<path d="M881.4 767.4L901.8 874.6C901.8 874.6 762.1 907.3 758.4 883.8C754.7 860.3 760.9 785.2 760.9 785.2C760.9 785.2 759.5 773.9 775.5 778.7C791.5 783.5 776.1 801.2 800 788.4C823.9 775.6 855.9 747.8 881.4 767.4Z" fill="#C9BB7D"/>
<path d="M726.101 801.9L752.701 761.3L840.601 784.3L826.601 837.5L726.101 801.9Z" fill="#FFD6AE"/>
<path d="M694.9 675.2L745 666.2L752.7 761.3L726.1 801.9L694.9 675.2Z" fill="#7479F8"/>
<path d="M699.2 699.5L729.5 689.2C745.4 683.8 753.9 666.5 748.5 650.6L748.2 649.6L660.3 679.6L660.6 680.6C666 696.4 683.3 704.9 699.2 699.5Z" fill="#C1C0BF"/>
<path d="M660.304 679.533L748.13 649.558L744.092 637.728L656.266 667.703L660.304 679.533Z" fill="#898989"/>
<path d="M751.991 753.032L718.35 770.706L718.675 771.325L752.317 753.652L751.991 753.032Z" fill="white"/>
<path d="M710.775 816.297L695.734 854.869L696.387 855.124L711.427 816.551L710.775 816.297Z" fill="white"/>
<path d="M906.701 772.6V881.7C906.701 881.7 763.301 887.7 764.101 864C764.801 840.3 785.001 767.6 785.001 767.6C785.001 767.6 785.701 756.2 800.601 763.9C815.401 771.6 797.001 786.2 822.901 778C848.801 769.9 885.301 748.7 906.701 772.6Z" fill="#EDE2B4"/>
<path d="M866.356 720.737L862.03 768.341L864.52 768.567L868.846 720.963L866.356 720.737Z" fill="#895A33"/>
<path d="M885.636 709.913L866.42 774.516L868.816 775.229L888.032 710.626L885.636 709.913Z" fill="#895A33"/>
<path d="M904.463 743.188L869.395 778.405L871.166 780.169L906.234 744.952L904.463 743.188Z" fill="#895A33"/>
<path d="M754.346 767.53L753.716 769.949L832.108 790.353L832.737 787.933L754.346 767.53Z" fill="#895A33"/>
<path d="M796.01 750.772L794.394 752.68L830.865 783.577L832.481 781.67L796.01 750.772Z" fill="#895A33"/>
<path d="M798.215 793.528L798.109 796.026L836.974 797.664L837.08 795.166L798.215 793.528Z" fill="#895A33"/>
<path d="M873.801 796.2L843.701 807.7C838.701 809.6 833.201 807.1 831.301 802.1L831.101 801.5C829.201 796.5 831.701 791 836.701 789.1L866.801 777.6C871.801 775.7 877.301 778.2 879.201 783.2L879.401 783.8C881.201 788.7 878.701 794.3 873.801 796.2Z" fill="#C6B981"/>
<path d="M936.401 494.3L934.401 490.2C933.001 487.2 929.401 486 926.401 487.4L856.401 521.2C853.401 522.6 852.201 526.2 853.601 529.2L855.601 533.3C857.001 536.3 860.601 537.5 863.601 536.1L933.601 502.3C936.601 500.8 937.901 497.2 936.401 494.3Z" fill="#ED8835"/>
<path d="M866.401 784.3L863.501 785.7C860.501 787.1 857.001 785.9 855.501 782.9L811.601 691.9C810.201 688.9 811.401 685.4 814.401 683.9L817.301 682.5C820.301 681.1 823.801 682.3 825.301 685.3L869.201 776.3C870.601 779.3 869.301 782.9 866.401 784.3Z" fill="#ED8835"/>
<path d="M815.301 707.9C816.001 704.7 814.001 701.6 810.901 700.8L708.601 677.6C705.401 676.9 702.301 678.9 701.501 682C700.701 685.1 702.801 688.3 705.901 689.1L808.201 712.3C811.401 713.1 814.601 711.1 815.301 707.9Z" fill="#FF9B40"/>
<path d="M831.401 711.5C831.401 711.7 831.301 711.8 831.301 711.9L831.501 711C831.401 711.2 831.401 711.3 831.401 711.5Z" fill="#EDEDED"/>
<path d="M845.901 463.7L776.501 587.6L751.101 699.3L824.201 715.9C827.301 716.6 830.301 714.8 831.201 711.9L831.401 711L855.001 607.4L898.001 475.6L845.901 463.7Z" fill="#EDEDED" stroke="#CCCCCC" stroke-width="2" stroke-miterlimit="10"/>
<path d="M813.101 479.7C812.801 479.6 812.501 479.5 812.101 479.4L796.501 471.5L780.901 463.6C778.501 462.4 778.301 459 780.601 457.6L793.301 449.3C792.901 443.6 793.901 437.7 796.301 432C798.801 426.4 802.501 421.7 806.901 418.1L804.401 403.2C804.001 400.5 806.501 398.4 809.101 399.3L825.501 405.4L841.901 411.5C842.201 411.6 842.501 411.8 842.801 412C843.601 412.3 844.401 412.6 845.201 412.9L927.901 451.2C946.701 459.4 955.201 481.3 947.001 500C938.801 518.8 916.901 527.3 898.201 519.1L815.501 480.8C814.601 480.5 813.901 480.1 813.101 479.7Z" fill="#FF9B40"/>
<path d="M902.622 474.356L910.287 456.863L833.077 423.033L825.412 440.527L902.622 474.356Z" fill="#231815"/>
<path d="M814.101 441.4C815.427 441.4 816.501 440.325 816.501 439C816.501 437.675 815.427 436.6 814.101 436.6C812.776 436.6 811.701 437.675 811.701 439C811.701 440.325 812.776 441.4 814.101 441.4Z" fill="black"/>
<path d="M822.3 422.9C823.626 422.9 824.7 421.825 824.7 420.5C824.7 419.175 823.626 418.1 822.3 418.1C820.975 418.1 819.9 419.175 819.9 420.5C819.9 421.825 820.975 422.9 822.3 422.9Z" fill="black"/>
<path d="M832.301 437.9L835.801 430C836.201 429 835.801 427.9 834.801 427.5L833.401 426.9C832.401 426.5 831.301 426.9 830.901 427.9L827.401 435.8C827.001 436.8 827.401 437.9 828.401 438.3L829.801 438.9C830.801 439.4 831.901 438.9 832.301 437.9Z" fill="white"/>
<path d="M945.101 557.7L946.201 553.3C947.001 550.1 945.001 546.9 941.801 546.1L858.201 526.2C855.001 525.4 851.801 527.4 851.001 530.6L849.901 535C849.101 538.2 851.101 541.4 854.301 542.2L937.901 562.1C941.101 562.9 944.301 560.9 945.101 557.7Z" fill="#FFB243"/>
<path d="M816.01 416.331L814.623 417.129L818.415 423.716L819.801 422.918L816.01 416.331Z" fill="#231815"/>
<path d="M811.501 580L789.401 566.9L792.101 562.3L800.701 567.4C802.401 568.4 804.401 569.8 806.101 571C803.001 559.8 801.801 549.8 805.701 543.2C809.401 537 815.801 535.3 822.101 539C826.601 541.6 828.401 545.4 829.501 550.3L824.701 551.5C824.101 548.3 822.901 545.3 820.201 543.7C816.401 541.4 812.901 542.8 810.701 546.5C807.401 552.1 808.601 561.9 813.401 576.8L811.501 580Z" fill="#FF9B40"/>
<path d="M848.101 793.1L845.201 794.5C842.201 795.9 838.701 794.7 837.201 791.7L790.501 694.9C789.101 691.9 790.301 688.4 793.301 686.9L796.201 685.5C799.201 684.1 802.701 685.3 804.201 688.3L850.901 785.1C852.301 788.1 851.001 791.6 848.101 793.1Z" fill="#FFB243"/>
<path d="M1092 769.2C1091.7 769.1 1091.5 769.2 1091.2 769.4C1090.1 770.4 1070.2 770.9 1067.1 766.8C1064 762.7 1056 763.1 1056 763.1C1045.5 762.5 1040.4 766.8 1031.9 772.1C1023.4 777.4 1052.4 781 1064.4 778.4C1076.4 775.8 1104.7 785.4 1104.6 785.2C1104.6 785.2 1104.7 785.1 1104.8 785.1C1101.9 778.9 1096.3 773.1 1092 769.2Z" fill="#3148D3"/>
<path d="M1175 757C1172.5 750 1161.8 755.8 1157.5 754.5C1153.3 753.1 1119.8 762.2 1119.5 764C1119.1 765.8 1094.5 771.6 1094.5 771.6C1094.5 771.6 1093.1 769.6 1091.9 769.3C1096.2 773.2 1101.8 778.9 1104.7 785.2C1106.3 784.4 1118.4 780 1118.4 780C1118.4 780 1120.3 789.6 1120.4 790.5C1120.5 791.3 1155.9 785.8 1165.7 780.1C1175.5 774.3 1177.5 764 1175 757Z" fill="#D39262"/>
<path d="M1173.1 639.5L1242.1 613L1240.5 645.9L1173.3 651.6" fill="white"/>
<path d="M1172.7 644.9L1246.5 639.6L1235.3 670.6L1169.4 656.5" fill="#EAEAEA"/>
<path d="M1176.3 640L1241.3 675.2L1215.2 695.3L1167.2 648" fill="white"/>
<path d="M1061.8 669.6C1016.1 670.2 988.101 649.9 972.701 632.8C956.501 614.8 950.801 596.6 949.801 593.2L948.501 588.8L947.901 549.3C947.601 530.2 962.901 514.4 982.101 514.1C1001.2 513.8 1017 529.1 1017.3 548.3L1017.7 576.9C1019.1 579.8 1021.7 584 1025.7 588.1C1034.2 596.6 1045.6 600.6 1060.8 600.4C1079.9 600.1 1095.7 615.4 1096 634.6C1096.3 653.8 1080.9 669.3 1061.8 669.6Z" fill="#F4F4F4"/>
<path d="M1055.2 770L1027.2 764C1024.6 763.4 1022.9 760.9 1023.5 758.2C1024.1 755.6 1026.6 753.9 1029.3 754.5L1050.4 759L1068.5 727.4C1069.8 725.1 1072.8 724.3 1075.1 725.6C1077.4 726.9 1078.2 729.9 1076.9 732.2L1055.2 770Z" fill="#FFFA43"/>
<path d="M1149.4 783.5C1148.3 783.4 1147.2 783 1146.4 782.2C1144.4 780.4 1144.3 777.3 1146.1 775.3L1160.7 759.4L1142.6 727.8C1141.3 725.5 1142.1 722.5 1144.4 721.2C1146.7 719.9 1149.7 720.7 1151 723L1172.6 760.8L1153.2 781.9C1152.2 783.1 1150.8 783.6 1149.4 783.5Z" fill="#FFFA43"/>
<path d="M1128.4 717.7C1128.4 717.7 1145 746.2 1151.3 744.3C1157.6 742.4 1161.8 741.1 1161.4 730.4C1161.1 719.6 1151.9 691.7 1151.9 691.7" fill="#444740"/>
<path d="M991.901 543C993.503 543 994.801 541.702 994.801 540.1C994.801 538.498 993.503 537.2 991.901 537.2C990.299 537.2 989.001 538.498 989.001 540.1C989.001 541.702 990.299 543 991.901 543Z" fill="#444740"/>
<path d="M961.501 543.5C963.102 543.5 964.401 542.202 964.401 540.6C964.401 538.998 963.102 537.7 961.501 537.7C959.899 537.7 958.601 538.998 958.601 540.6C958.601 542.202 959.899 543.5 961.501 543.5Z" fill="#444740"/>
<path d="M973.901 543.8C973.901 543.8 959.501 546 958.101 552.9C956.701 559.8 961.201 570 962.801 565.9C964.401 561.9 974.201 561.3 975.401 561.7C976.501 562.2 982.201 546.9 973.901 543.8Z" fill="#FFFA43"/>
<path d="M1185 687.7C1185 687.7 1193.7 725 1190.4 727.8C1187.2 730.5 1168.1 738.7 1185 742.4C1201.9 746.1 1237.9 740.5 1224.6 735C1211.2 729.5 1205.6 732.8 1199.6 735C1193.7 737.2 1185 737.4 1193.1 731.3C1201.1 725.1 1185.8 699.4 1185 687.7Z" fill="#898989"/>
<path d="M1185 686.1C1185 686.1 1193.7 723.4 1190.4 726.2C1187.2 728.9 1168.1 737.1 1185 740.8C1201.8 744.5 1237.9 738.9 1224.6 733.4C1211.2 727.9 1205.6 731.2 1199.6 733.4C1193.7 735.6 1185 735.8 1193.1 729.7C1201.1 723.4 1185.8 697.7 1185 686.1Z" fill="white"/>
<path d="M1193.1 640.4C1192.7 614.2 1180.9 590.9 1162.5 575C1162.7 575.8 1162.8 576.7 1162.8 577.5C1162.8 592.4 1137 604.4 1105.3 604.4C1073.5 604.4 1047.8 592.4 1047.8 577.5C1047.8 576.7 1047.9 575.8 1048.1 575C1029.1 591.4 1017.1 615.8 1017.5 642.9C1018 676 1036.7 704.6 1063.9 719.2C1061.2 727.6 1059 736.9 1061.8 738.9C1067 742.8 1070.6 745.4 1079 738.7C1081.7 736.5 1085.4 732.5 1089 728.1C1094.7 729.2 1100.6 729.7 1106.6 729.6C1155 728.8 1193.8 688.9 1193.1 640.4Z" fill="#444740"/>
<path d="M1105.2 604.4C1137 604.4 1162.7 592.4 1162.7 577.5C1162.7 576.7 1162.6 575.8 1162.4 575C1146.7 561.5 1126.2 553.4 1103.9 553.8C1082.5 554.1 1062.9 562.1 1047.9 575C1047.7 575.8 1047.6 576.7 1047.6 577.5C1047.7 592.4 1073.5 604.4 1105.2 604.4Z" fill="#262823"/>
<path d="M1073.2 540.5L1074.3 540.8C1077.6 541.7 1079.5 545.2 1078.5 548.4L1070.4 573.4L1057.4 569.7L1065.5 544.7C1066.5 541.5 1069.9 539.6 1073.2 540.5Z" fill="#D3CBA9"/>
<path d="M1061.5 581L1061.1 580.9C1057.6 579.9 1055.6 576.3 1056.6 572.8L1057.5 569.8L1070.5 573.5L1069.6 576.5C1068.6 579.9 1065 581.9 1061.5 581Z" fill="#726251"/>
<path d="M1131.3 536.6L1132.4 536.9C1135.7 537.8 1137.6 541.3 1136.6 544.5L1128.5 569.5L1115.5 565.8L1123.6 540.8C1124.6 537.6 1128 535.7 1131.3 536.6Z" fill="#D3CBA9"/>
<path d="M1119.6 577L1119.2 576.9C1115.7 575.9 1113.7 572.3 1114.7 568.8L1115.6 565.8L1128.6 569.5L1127.7 572.5C1126.7 576 1123.1 578 1119.6 577Z" fill="#726251"/>
<path d="M1197.4 535.4L1173.2 534.7C1173.5 536.5 1173.8 538.3 1174.1 540.1L1197.4 535.4Z" fill="#FF9494"/>
<path d="M1153.2 464.8L1137.1 484.6C1139 485.7 1140.8 486.8 1142.5 488L1153.2 464.8Z" fill="#FF9494"/>
<path d="M1168.5 497.7L1178.6 487.8L1168 493.9L1156.5 500.5C1157.9 502.1 1159.2 503.8 1160.5 505.5L1168.5 497.7Z" fill="#FF9494"/>
<path d="M1137.7 457.1L1125.6 479.3C1127.6 480 1129.6 480.8 1131.5 481.7L1137.7 457.1Z" fill="#FF9494"/>
<path d="M1163.9 479.5L1167 475.1L1163.4 478.2L1147.5 491.7C1149.2 493.1 1150.8 494.5 1152.3 496L1163.9 479.5Z" fill="#FF9494"/>
<path d="M1167.9 515.8L1187.8 502.4L1168.7 509.1L1164 510.8C1165.1 512.6 1166.1 514.5 1167 516.4L1167.9 515.8Z" fill="#FF9494"/>
<path d="M1121.1 452.4L1113.4 476C1115.5 476.4 1117.5 476.8 1119.5 477.4L1121.1 452.4Z" fill="#FF9494"/>
<path d="M1194.1 518.5L1169.6 522.3C1170.3 524.2 1171 526.2 1171.6 528.2L1194.1 518.5Z" fill="#FF9494"/>
<path d="M1013.3 517.8L1030 525.3C1030.5 523.8 1031 522.4 1031.6 520.9L1013.3 517.8Z" fill="#FF9494"/>
<path d="M1044.3 477.7L1040.9 474.7L1043.8 478.9L1052.8 492.1C1054.2 490.9 1055.6 489.8 1057 488.8L1044.3 477.7Z" fill="#FF9494"/>
<path d="M1039.4 493.5L1029 487.3L1038.8 497.2L1043.2 501.6C1044.3 500.3 1045.4 499 1046.6 497.8L1039.4 493.5Z" fill="#FF9494"/>
<path d="M1019.8 501.8L1035.6 512.8C1036.4 511.4 1037.2 510 1038.1 508.6L1019.8 501.8Z" fill="#FF9494"/>
<path d="M1009.9 534.7L1026.9 538.4C1027.1 537.1 1027.3 535.7 1027.6 534.4L1009.9 534.7Z" fill="#FF9494"/>
<path d="M1104 450.7L1100.8 474.8C1102.9 474.8 1104.9 474.9 1107 475.1L1104 450.7Z" fill="#FF9494"/>
<path d="M1054.7 464.4L1063.6 484.6C1065.2 483.7 1066.9 482.8 1068.6 482L1054.7 464.4Z" fill="#FF9494"/>
<path d="M1086.8 452.2L1088 475.8C1090 475.5 1092 475.2 1094 475L1086.8 452.2Z" fill="#FF9494"/>
<path d="M1070.2 456.9L1075.5 479.2C1077.3 478.6 1079.2 478 1081.1 477.5L1070.2 456.9Z" fill="#FF9494"/>
<path d="M1103.7 569.7C1124.9 569.7 1143.7 559.6 1155.6 543.9L1174.1 540.2C1173.9 538.4 1173.6 536.6 1173.2 534.8L1161.6 534.5L1157.6 534.4L1162.8 532.2L1171.7 528.4C1171.1 526.4 1170.4 524.4 1169.7 522.5L1166.3 523L1154.8 524.8L1167.1 516.5C1166.2 514.6 1165.2 512.7 1164.1 510.9L1150.2 515.8L1160.6 505.7C1159.3 504 1158 502.3 1156.6 500.7L1144.1 507.9L1152.3 496.2C1150.8 494.7 1149.2 493.3 1147.5 491.9L1136.6 501.2L1142.6 488.2C1140.8 487 1139 485.8 1137.2 484.8L1128.1 496L1131.6 482C1129.7 481.1 1127.7 480.3 1125.7 479.6L1118.7 492.5L1119.6 477.7C1117.6 477.2 1115.5 476.7 1113.5 476.3L1108.8 490.6L1107 475.4C1105 475.2 1102.9 475.1 1100.8 475.1L1098.7 490.5L1094 475.3C1092 475.5 1090 475.7 1088 476.1L1088.8 492.3L1081.1 477.6C1079.2 478.1 1077.4 478.7 1075.5 479.3L1079.4 495.9L1068.6 482.2C1066.9 483 1065.2 483.9 1063.6 484.8L1070.8 501.1L1057 489C1055.5 490.1 1054.1 491.2 1052.8 492.3L1063.4 507.8L1046.8 497.9C1045.6 499.1 1044.5 500.4 1043.4 501.7L1057.3 515.7L1038.8 508.9L1038.3 508.7C1037.4 510.1 1036.6 511.5 1035.8 512.9L1039.6 515.5L1052.8 524.6L1041.2 522.6L1031.8 521C1031.2 522.4 1030.7 523.9 1030.2 525.4L1044.7 531.9L1049.9 534.3L1045.8 534.4L1027.7 534.6C1027.4 535.9 1027.2 537.2 1027 538.6L1051.8 544C1063.7 559.6 1082.5 569.7 1103.7 569.7Z" fill="#FFF9E1"/>
<path d="M1084.1 529.4C1085.9 528.4 1087.1 526.6 1087.1 524.4C1087.1 521.2 1084.5 518.7 1081.4 518.7C1078.9 518.7 1076.8 520.3 1076 522.5C1073.6 521.4 1074.8 525.5 1072 525.5C1069.2 525.5 1072.7 523.1 1070.3 524.2C1069.5 522 1067.4 520.4 1064.9 520.4C1061.7 520.4 1062.3 520.9 1062.3 524C1062.3 526.2 1060.4 530.1 1062.2 531.1C1060.1 534.2 1052.7 529.5 1052.7 533.4C1052.7 544.1 1061.4 552.7 1072 552.7C1082.6 552.7 1091.3 544 1091.3 533.4C1091.3 529.5 1086.2 532.5 1084.1 529.4Z" fill="#D8CEA3"/>
<path d="M1072 548.8C1084.15 548.8 1094 538.95 1094 526.8C1094 514.65 1084.15 504.8 1072 504.8C1059.85 504.8 1050 514.65 1050 526.8C1050 538.95 1059.85 548.8 1072 548.8Z" fill="white"/>
<path d="M1080.3 530C1081.4 530 1082.3 529.105 1082.3 528C1082.3 526.895 1081.4 526 1080.3 526C1079.2 526 1078.3 526.895 1078.3 528C1078.3 529.105 1079.2 530 1080.3 530Z" fill="black"/>
<path d="M1063.6 530C1064.7 530 1065.6 529.105 1065.6 528C1065.6 526.895 1064.7 526 1063.6 526C1062.5 526 1061.6 526.895 1061.6 528C1061.6 529.105 1062.5 530 1063.6 530Z" fill="black"/>
<path d="M1072 533C1073.55 533 1074.8 532.373 1074.8 531.6C1074.8 530.827 1073.55 530.2 1072 530.2C1070.45 530.2 1069.2 530.827 1069.2 531.6C1069.2 532.373 1070.45 533 1072 533Z" fill="black"/>
<path d="M1067.7 543.9L1067.3 543.4L1071.7 539.7V532.1H1072.3V539.9L1067.7 543.9Z" fill="black"/>
<path d="M1072.18 539.512L1071.8 539.98L1076.25 543.549L1076.62 543.081L1072.18 539.512Z" fill="black"/>
<path d="M1087.1 515.4C1090.69 515.4 1093.6 512.49 1093.6 508.9C1093.6 505.31 1090.69 502.4 1087.1 502.4C1083.51 502.4 1080.6 505.31 1080.6 508.9C1080.6 512.49 1083.51 515.4 1087.1 515.4Z" fill="white"/>
<path d="M1087.1 511.5C1088.54 511.5 1089.7 510.336 1089.7 508.9C1089.7 507.464 1088.54 506.3 1087.1 506.3C1085.66 506.3 1084.5 507.464 1084.5 508.9C1084.5 510.336 1085.66 511.5 1087.1 511.5Z" fill="#847A6A"/>
<path d="M1056.8 515.4C1060.39 515.4 1063.3 512.49 1063.3 508.9C1063.3 505.31 1060.39 502.4 1056.8 502.4C1053.21 502.4 1050.3 505.31 1050.3 508.9C1050.3 512.49 1053.21 515.4 1056.8 515.4Z" fill="white"/>
<path d="M1056.8 511.5C1058.24 511.5 1059.4 510.336 1059.4 508.9C1059.4 507.464 1058.24 506.3 1056.8 506.3C1055.36 506.3 1054.2 507.464 1054.2 508.9C1054.2 510.336 1055.36 511.5 1056.8 511.5Z" fill="#847A6A"/>
<path d="M1094.2 550.1L1093.1 550.4C1089.8 551.3 1087.8 554.3 1088.6 557L1095.5 577.7L1108.5 574L1101.6 553.3C1100.8 550.6 1097.5 549.2 1094.2 550.1Z" fill="#D3CBA9"/>
<path d="M1104.4 585.2L1104.8 585.1C1108.3 584.1 1110.3 580.5 1109.3 577L1108.4 574L1095.4 577.7L1096.3 580.7C1097.3 584.2 1101 586.2 1104.4 585.2Z" fill="#726251"/>
<path d="M1140.3 546.2L1139.2 546.5C1135.9 547.4 1133.9 550.4 1134.7 553.1L1141.6 573.8L1154.6 570.1L1147.7 549.4C1146.9 546.7 1143.6 545.3 1140.3 546.2Z" fill="#D3CBA9"/>
<path d="M1150.5 581.3L1150.9 581.2C1154.4 580.2 1156.4 576.6 1155.4 573.1L1154.5 570.1L1141.5 573.8L1142.4 576.8C1143.4 580.3 1147 582.3 1150.5 581.3Z" fill="#726251"/>
<g clip-path="url(#clip0)">
<path d="M977.867 285C979.245 285.696 969.988 317.696 969.084 321.087C965.941 332.783 960.99 344.652 960.086 356.783C959.354 366.304 964.865 375.739 974.552 377.652C981.828 379.087 989.534 376.043 994.744 370.696C1006.58 358.522 1005.64 338.913 1000.13 324.087C997.112 315.87 992.677 308.261 987.941 300.957C985.832 297.696 983.679 294.478 981.656 291.13C980.881 289.913 979.202 285.652 977.867 285Z" fill="#C2DEEF"/>
<path d="M970.806 325.957C970.72 331.087 968.481 335.826 966.759 340.522C964.908 345.565 963.832 350.609 964.736 356C965.425 360.13 971.624 358.391 970.978 354.261C970.204 349.478 972.055 344.783 973.691 340.391C975.456 335.696 977.178 331.043 977.264 325.957C977.35 321.739 970.892 321.739 970.806 325.957Z" fill="white"/>
<path d="M965.123 364.957C965.338 368.13 967.319 370.87 970.246 372.043C971.839 372.652 973.863 371.348 974.207 369.783C974.638 367.913 973.648 366.435 971.968 365.783C972.227 365.87 972.571 366.087 972.141 365.826C971.839 365.609 972.571 366.261 972.313 365.957C972.184 365.826 972.055 365.696 971.925 365.565C971.538 365.174 972.141 365.913 971.968 365.609C971.882 365.478 971.796 365.348 971.753 365.217C971.495 364.739 971.753 365.043 971.753 365.304C971.753 365.174 971.667 365 971.624 364.913C971.538 364.652 971.538 364.087 971.624 365C971.495 363.304 970.246 361.652 968.395 361.739C966.716 361.783 964.994 363.13 965.123 364.957Z" fill="white"/>
</g>
<path d="M1668 971C1668 965.477 1672.48 961 1678 961H1859C1864.52 961 1869 965.477 1869 971V1020C1869 1025.52 1864.52 1030 1859 1030H1678C1672.48 1030 1668 1025.52 1668 1020V971Z" fill="white"/>
<path d="M1700.5 995.5L1702.5 997.5L1704.5 995.5" stroke="#FF9B40" stroke-width="2" stroke-linecap="round"/>
<path d="M1711.5 1004.5C1716.47 1004.5 1720.5 1000.47 1720.5 995.5C1720.5 990.529 1716.47 986.5 1711.5 986.5C1706.53 986.5 1702.5 990.529 1702.5 995.5C1702.5 995.463 1702.5 996.5 1702.5 996.5" stroke="#FF9B40" stroke-width="2" stroke-linecap="round"/>
<path d="M1748.09 1005L1744.45 999.735H1744.23H1740.42V1005H1736.05V986.1H1744.23C1745.9 986.1 1747.35 986.379 1748.58 986.937C1749.82 987.495 1750.77 988.287 1751.44 989.313C1752.1 990.339 1752.44 991.554 1752.44 992.958C1752.44 994.362 1752.1 995.577 1751.41 996.603C1750.75 997.611 1749.79 998.385 1748.55 998.925L1752.79 1005H1748.09ZM1748.01 992.958C1748.01 991.896 1747.67 991.086 1746.98 990.528C1746.3 989.952 1745.3 989.664 1743.99 989.664H1740.42V996.252H1743.99C1745.3 996.252 1746.3 995.964 1746.98 995.388C1747.67 994.812 1748.01 994.002 1748.01 992.958ZM1769.83 997.791C1769.83 997.845 1769.81 998.223 1769.75 998.925H1758.76C1758.96 999.825 1759.43 1000.54 1760.17 1001.06C1760.91 1001.58 1761.82 1001.84 1762.92 1001.84C1763.68 1001.84 1764.34 1001.73 1764.92 1001.52C1765.51 1001.28 1766.06 1000.92 1766.57 1000.44L1768.81 1002.87C1767.44 1004.43 1765.44 1005.22 1762.81 1005.22C1761.18 1005.22 1759.73 1004.9 1758.47 1004.27C1757.21 1003.62 1756.24 1002.73 1755.55 1001.6C1754.87 1000.46 1754.53 999.177 1754.53 997.737C1754.53 996.315 1754.86 995.037 1755.52 993.903C1756.21 992.751 1757.14 991.86 1758.31 991.23C1759.49 990.582 1760.82 990.258 1762.27 990.258C1763.7 990.258 1764.98 990.564 1766.14 991.176C1767.29 991.788 1768.19 992.67 1768.84 993.822C1769.5 994.956 1769.83 996.279 1769.83 997.791ZM1762.3 993.444C1761.35 993.444 1760.55 993.714 1759.9 994.254C1759.25 994.794 1758.85 995.532 1758.71 996.468H1765.87C1765.72 995.55 1765.33 994.821 1764.68 994.281C1764.03 993.723 1763.24 993.444 1762.3 993.444ZM1777.53 1005.22C1776.32 1005.22 1775.14 1005.07 1773.99 1004.78C1772.84 1004.48 1771.92 1004.1 1771.23 1003.65L1772.64 1000.63C1773.29 1001.04 1774.07 1001.38 1774.99 1001.65C1775.91 1001.9 1776.81 1002.03 1777.69 1002.03C1779.47 1002.03 1780.36 1001.59 1780.36 1000.71C1780.36 1000.29 1780.12 999.996 1779.63 999.816C1779.15 999.636 1778.4 999.483 1777.39 999.357C1776.2 999.177 1775.22 998.97 1774.45 998.736C1773.67 998.502 1773 998.088 1772.42 997.494C1771.86 996.9 1771.59 996.054 1771.59 994.956C1771.59 994.038 1771.85 993.228 1772.37 992.526C1772.91 991.806 1773.68 991.248 1774.69 990.852C1775.72 990.456 1776.92 990.258 1778.31 990.258C1779.33 990.258 1780.35 990.375 1781.36 990.609C1782.39 990.825 1783.23 991.131 1783.9 991.527L1782.49 994.524C1781.22 993.804 1779.82 993.444 1778.31 993.444C1777.41 993.444 1776.73 993.57 1776.28 993.822C1775.83 994.074 1775.61 994.398 1775.61 994.794C1775.61 995.244 1775.85 995.559 1776.34 995.739C1776.82 995.919 1777.6 996.09 1778.66 996.252C1779.85 996.45 1780.82 996.666 1781.58 996.9C1782.33 997.116 1782.99 997.521 1783.55 998.115C1784.1 998.709 1784.38 999.537 1784.38 1000.6C1784.38 1001.5 1784.11 1002.3 1783.57 1003C1783.03 1003.7 1782.24 1004.25 1781.2 1004.65C1780.17 1005.03 1778.95 1005.22 1777.53 1005.22ZM1796.35 1004.3C1795.94 1004.6 1795.42 1004.84 1794.81 1005C1794.22 1005.14 1793.59 1005.22 1792.92 1005.22C1791.19 1005.22 1789.85 1004.77 1788.9 1003.89C1787.96 1003.01 1787.5 1001.71 1787.5 1000V994.038H1785.25V990.798H1787.5V987.261H1791.71V990.798H1795.33V994.038H1791.71V999.951C1791.71 1000.56 1791.86 1001.04 1792.17 1001.38C1792.49 1001.71 1792.94 1001.87 1793.52 1001.87C1794.18 1001.87 1794.75 1001.69 1795.22 1001.33L1796.35 1004.3ZM1804.57 990.258C1806.82 990.258 1808.55 990.798 1809.76 991.878C1810.96 992.94 1811.57 994.551 1811.57 996.711V1005H1807.63V1003.19C1806.83 1004.54 1805.36 1005.22 1803.2 1005.22C1802.08 1005.22 1801.11 1005.03 1800.28 1004.65C1799.47 1004.27 1798.85 1003.75 1798.42 1003.08C1797.99 1002.42 1797.77 1001.66 1797.77 1000.81C1797.77 999.465 1798.27 998.403 1799.28 997.629C1800.31 996.855 1801.88 996.468 1804.01 996.468H1807.36C1807.36 995.55 1807.08 994.848 1806.52 994.362C1805.96 993.858 1805.12 993.606 1804.01 993.606C1803.23 993.606 1802.47 993.732 1801.71 993.984C1800.97 994.218 1800.34 994.542 1799.82 994.956L1798.31 992.013C1799.1 991.455 1800.05 991.023 1801.15 990.717C1802.26 990.411 1803.4 990.258 1804.57 990.258ZM1804.25 1002.38C1804.97 1002.38 1805.61 1002.22 1806.17 1001.89C1806.73 1001.55 1807.12 1001.06 1807.36 1000.41V998.925H1804.47C1802.74 998.925 1801.87 999.492 1801.87 1000.63C1801.87 1001.17 1802.08 1001.6 1802.5 1001.92C1802.93 1002.23 1803.51 1002.38 1804.25 1002.38ZM1819.4 992.391C1819.91 991.689 1820.58 991.158 1821.43 990.798C1822.29 990.438 1823.28 990.258 1824.4 990.258V994.146C1823.93 994.11 1823.62 994.092 1823.45 994.092C1822.25 994.092 1821.3 994.434 1820.62 995.118C1819.93 995.784 1819.59 996.792 1819.59 998.142V1005H1815.38V990.474H1819.4V992.391ZM1836.77 1004.3C1836.36 1004.6 1835.85 1004.84 1835.23 1005C1834.64 1005.14 1834.01 1005.22 1833.34 1005.22C1831.62 1005.22 1830.27 1004.77 1829.32 1003.89C1828.38 1003.01 1827.92 1001.71 1827.92 1000V994.038H1825.68V990.798H1827.92V987.261H1832.13V990.798H1835.75V994.038H1832.13V999.951C1832.13 1000.56 1832.28 1001.04 1832.59 1001.38C1832.91 1001.71 1833.36 1001.87 1833.94 1001.87C1834.6 1001.87 1835.17 1001.69 1835.64 1001.33L1836.77 1004.3Z" fill="#FF9B40"/>
<g clip-path="url(#clip1)">
<path d="M698.525 300.612L631.283 310.912L600.805 112.875C598.066 95.1851 581.368 82.9589 563.637 85.6908C545.907 88.4226 533.652 105.082 536.39 122.772L570.46 344.232C570.281 346.471 570.371 348.755 570.73 351.084C572.346 361.608 579.258 370.072 588.371 374.193C594.386 377.372 601.388 378.761 608.57 377.641C611.937 377.104 615.124 376.118 617.997 374.685L707.772 360.936C724.381 358.384 735.917 342.754 733.358 326.139C730.845 309.524 715.134 298.059 698.525 300.612Z" fill="#3E3E3E"/>
<path d="M1352 333.126L1249.61 311.271L1259.13 266.934L1357.7 287.938C1369.6 290.491 1381.4 282.833 1383.96 270.965C1386.52 259.097 1378.85 247.319 1366.95 244.766L1268.38 223.762L1278.7 175.619L1376.33 196.444C1388.23 198.996 1400.03 191.338 1402.59 179.47C1405.15 167.602 1397.47 155.824 1385.58 153.271L1265.28 127.61C1253.38 125.057 1241.58 132.715 1239.02 144.583C1238.53 146.867 1238.44 149.196 1238.66 151.435L1220.93 234.197C1220.75 234.824 1220.57 235.496 1220.39 236.167C1220.26 236.839 1220.12 237.511 1220.08 238.183L1201.94 322.825C1199.61 333.708 1205.85 344.501 1216.04 348.174C1218.01 349.293 1220.17 350.144 1222.5 350.681L1342.8 376.343C1354.7 378.896 1366.5 371.238 1369.06 359.37C1371.53 347.457 1363.9 335.679 1352 333.126Z" fill="#3E3E3E"/>
<path d="M920.721 130.252C876.506 130.252 840.641 166.035 840.641 210.148C840.641 254.26 876.506 290.043 920.721 290.043C964.935 290.043 1000.8 254.26 1000.8 210.148C1000.8 166.035 964.935 130.252 920.721 130.252ZM945.364 234.734C938.765 241.318 930.012 244.9 920.721 244.9C911.429 244.9 902.676 241.273 896.077 234.734C889.479 228.151 885.888 219.418 885.888 210.148C885.888 200.877 889.523 192.144 896.077 185.561C902.676 178.978 911.429 175.395 920.721 175.395C930.012 175.395 938.765 179.022 945.364 185.561C951.962 192.144 955.553 200.877 955.553 210.148C955.553 219.463 951.962 228.196 945.364 234.734Z" fill="#3E3E3E"/>
<path d="M736.949 109.248C692.735 109.248 656.869 145.031 656.869 189.144C656.869 233.257 692.735 269.084 736.949 269.084C781.164 269.084 817.029 233.301 817.029 189.144C817.029 144.986 781.209 109.248 736.949 109.248ZM761.593 213.73C754.994 220.314 746.241 223.897 736.949 223.897C727.657 223.897 718.904 220.269 712.306 213.73C705.707 207.147 702.116 198.414 702.116 189.144C702.116 179.873 705.752 171.14 712.306 164.557C718.904 157.974 727.657 154.391 736.949 154.391C746.241 154.391 754.994 158.019 761.593 164.557C768.191 171.14 771.782 179.873 771.782 189.144C771.827 198.459 768.191 207.192 761.593 213.73Z" fill="#3E3E3E"/>
<path d="M1166.8 99.0372C1158.27 92.4091 1149.56 86.1841 1139.77 81.5265C1134.52 79.0186 1129.09 76.7345 1123.52 75.0327C1118.05 73.3309 1112.48 72.5248 1106.83 71.8082C1102.88 71.3156 1098.93 71.226 1094.97 71.6291C1089.5 72.2113 1084.02 72.9279 1078.86 74.8984C1073.7 76.8241 1068.58 79.0633 1064.09 82.3326C1059.29 85.8258 1054.76 89.4981 1050.94 94.0662C1042.46 104.232 1036.04 115.697 1031.5 128.102C1030.16 131.775 1029.12 135.581 1028.59 139.478C1028.14 142.747 1027.6 146.016 1027.55 149.33C1027.55 152.51 1028.05 155.69 1028.5 158.869C1029.12 163.437 1030.88 167.513 1032.81 171.723C1034.65 175.753 1037.52 179.336 1040.35 182.65C1042.28 184.934 1044.48 186.949 1046.86 188.83C1050.63 191.786 1054.35 194.607 1058.53 197.026C1066.07 201.37 1074.19 204.729 1082.27 207.953C1089.27 210.775 1096.37 213.327 1103.41 216.014C1105.3 216.731 1107.14 217.447 1108.98 218.209C1107.45 217.582 1105.93 216.91 1104.45 216.283C1113.51 220.135 1122.18 224.971 1129.94 231.017C1128.64 230.032 1127.38 229.047 1126.08 228.061C1131.29 232.092 1136.09 236.66 1140.18 241.855C1139.19 240.556 1138.2 239.302 1137.21 238.004C1139.95 241.586 1142.33 245.438 1144.13 249.603C1143.5 248.08 1142.83 246.557 1142.2 245.08C1143.63 248.438 1144.62 251.976 1145.11 255.604C1144.89 253.902 1144.67 252.245 1144.44 250.543C1144.89 253.947 1144.89 257.395 1144.44 260.799C1144.67 259.097 1144.89 257.44 1145.11 255.738C1144.58 259.59 1143.5 263.307 1142.02 266.934C1142.65 265.412 1143.32 263.889 1143.95 262.411C1142.24 266.397 1140.09 270.114 1137.44 273.562C1138.43 272.264 1139.41 271.01 1140.4 269.711C1137.75 273.07 1134.7 276.115 1131.33 278.713C1132.64 277.727 1133.89 276.742 1135.19 275.757C1131.24 278.802 1126.85 281.31 1122.27 283.236C1123.79 282.609 1125.32 281.937 1126.8 281.31C1121.1 283.684 1115.13 285.251 1109.02 286.102C1110.73 285.878 1112.39 285.654 1114.1 285.43C1107.18 286.371 1100.14 286.326 1093.18 285.43C1094.89 285.654 1096.55 285.878 1098.25 286.102C1091.74 285.206 1085.32 283.549 1079.26 280.997C1080.79 281.624 1082.32 282.295 1083.8 282.922C1078.95 280.862 1074.33 278.265 1070.11 275.04C1071.41 276.026 1072.67 277.011 1073.97 277.996C1070.47 275.309 1067.32 272.219 1064.63 268.726C1065.62 270.025 1066.61 271.278 1067.59 272.577C1065.17 269.442 1063.15 265.994 1061.58 262.366C1062.21 263.889 1062.88 265.412 1063.51 266.89C1061.85 262.949 1060.77 258.828 1060.19 254.619C1060.41 256.32 1060.64 257.977 1060.86 259.679C1060.59 257.485 1060.41 255.335 1060.41 253.141C1060.37 248.214 1058.3 243.154 1054.85 239.705C1053.14 237.869 1051.07 236.526 1048.7 235.764C1046.41 234.555 1043.98 234.018 1041.33 234.107C1036.4 234.331 1031.28 235.944 1027.87 239.661C1024.46 243.378 1022.26 247.991 1022.3 253.096C1022.35 256.992 1022.88 260.844 1023.42 264.695C1023.74 266.845 1024.14 268.95 1024.73 271.055C1025.26 273.07 1025.98 275.04 1026.79 276.966C1028.18 280.28 1029.53 283.639 1031.37 286.729C1032.4 288.476 1033.52 290.133 1034.74 291.7C1036.89 294.522 1039 297.343 1041.51 299.896C1045.42 303.837 1049.91 307.33 1054.58 310.375C1059.38 313.51 1064.59 315.705 1069.84 317.899C1073.74 319.511 1077.78 320.721 1081.87 321.616C1087.61 322.87 1093.49 323.676 1099.37 323.99C1103.64 324.214 1107.95 324.124 1112.17 323.632C1118 323.005 1123.84 322.198 1129.45 320.586C1134.97 319.019 1140.4 316.78 1145.52 314.137C1150.59 311.54 1155.12 308.181 1159.52 304.598C1163.97 300.971 1167.47 296.582 1170.88 292.014C1174.79 286.819 1177.48 280.773 1179.68 274.682C1181.03 270.965 1181.7 267.203 1182.24 263.307C1182.73 259.635 1183.09 256.007 1182.78 252.29C1182.37 247.946 1181.83 243.512 1180.58 239.302C1179.32 235.182 1177.57 231.107 1175.59 227.255C1174.29 224.703 1172.77 222.284 1171.06 219.955C1168.41 216.373 1165.67 212.835 1162.58 209.61C1157.32 204.146 1151.26 199.399 1145.02 195.055C1140 191.562 1134.66 188.517 1129.13 185.83C1118.09 180.545 1106.42 176.649 1095.02 172.215C1092.73 171.319 1090.4 170.379 1088.15 169.438C1089.68 170.065 1091.2 170.737 1092.69 171.364C1084.83 168.05 1076.97 164.288 1070.2 159.093C1071.5 160.079 1072.76 161.064 1074.06 162.049C1071.27 159.899 1068.67 157.436 1066.52 154.66C1067.5 155.958 1068.49 157.212 1069.48 158.511C1067.86 156.406 1066.52 154.167 1065.48 151.749C1066.11 153.271 1066.79 154.794 1067.41 156.272C1066.38 153.853 1065.71 151.301 1065.35 148.703C1065.57 150.405 1065.8 152.062 1066.02 153.764C1065.62 150.674 1065.71 147.584 1066.11 144.494C1065.89 146.195 1065.66 147.852 1065.44 149.554C1066.11 144.494 1067.68 139.612 1069.66 134.91C1069.03 136.432 1068.36 137.955 1067.73 139.433C1070.83 132.178 1074.73 125.057 1079.58 118.832C1078.59 120.131 1077.6 121.385 1076.62 122.683C1079.44 119.056 1082.63 115.787 1086.27 112.965C1084.96 113.95 1083.71 114.936 1082.41 115.921C1085.46 113.592 1088.74 111.666 1092.24 110.189C1090.71 110.816 1089.18 111.487 1087.7 112.114C1091.29 110.636 1095.02 109.651 1098.84 109.114C1097.13 109.338 1095.47 109.562 1093.76 109.786C1098.34 109.203 1103.01 109.293 1107.59 109.875C1105.88 109.651 1104.22 109.427 1102.52 109.203C1109.02 110.099 1115.35 112.025 1121.46 114.577C1119.93 113.95 1118.41 113.279 1116.93 112.652C1126.26 116.638 1134.97 122.012 1143 128.192C1141.7 127.207 1140.45 126.221 1139.14 125.236C1139.46 125.46 1139.73 125.684 1140.04 125.908C1141.75 127.744 1143.81 129.088 1146.19 129.849C1148.48 131.058 1150.91 131.596 1153.55 131.506C1156.16 131.596 1158.63 131.058 1160.92 129.849C1163.29 129.088 1165.31 127.789 1167.06 125.908C1170.39 122.28 1172.86 117.533 1172.63 112.473C1172.41 110.771 1172.18 109.114 1171.96 107.412C1170.79 104.187 1169.13 101.411 1166.8 99.0372Z" fill="#3E3E3E"/>
<path d="M679.493 289.236L612.251 299.537L581.817 101.5C579.079 83.8546 562.336 71.5837 544.65 74.3155C526.92 77.0474 514.665 93.7072 517.359 111.397L551.428 332.857C551.249 335.096 551.339 337.38 551.698 339.709C553.314 350.233 560.226 358.697 569.339 362.817C575.354 365.997 582.356 367.385 589.538 366.266C592.905 365.728 596.092 364.743 598.965 363.31L688.74 349.561C705.349 347.008 716.885 331.379 714.326 314.764C711.813 298.193 696.147 286.684 679.493 289.236Z" fill="white"/>
<path d="M1332.97 321.795L1230.58 299.941L1240.1 255.604L1338.67 276.608C1350.57 279.161 1362.37 271.502 1364.93 259.634C1367.49 247.767 1359.81 235.988 1347.92 233.436L1249.34 212.432L1259.67 164.288L1357.3 185.113C1369.2 187.666 1381 180.008 1383.56 168.14C1386.12 156.272 1378.44 144.493 1366.55 141.941L1246.25 116.279C1234.35 113.727 1222.55 121.385 1219.99 133.253C1219.49 135.537 1219.4 137.865 1219.63 140.105L1201.9 222.822C1201.72 223.449 1201.54 224.12 1201.36 224.792C1201.23 225.464 1201.09 226.136 1201.05 226.807L1182.91 311.45C1180.58 322.333 1186.82 333.126 1197.01 336.798C1198.98 337.918 1201.14 338.769 1203.47 339.306L1323.77 364.968C1335.66 367.52 1347.47 359.862 1350.03 347.994C1352.54 336.126 1344.87 324.303 1332.97 321.795Z" fill="white"/>
<path d="M901.733 118.922C857.519 118.922 821.653 154.704 821.653 198.817C821.653 242.93 857.519 278.713 901.733 278.713C945.948 278.713 981.813 242.93 981.813 198.817C981.813 154.704 945.948 118.922 901.733 118.922ZM926.332 223.404C919.733 229.987 910.98 233.57 901.688 233.57C892.397 233.57 883.643 229.942 877.045 223.404C870.446 216.82 866.855 208.087 866.855 198.817C866.855 189.547 870.491 180.814 877.045 174.23C883.643 167.647 892.397 164.064 901.688 164.064C910.98 164.064 919.733 167.692 926.332 174.23C932.93 180.814 936.521 189.547 936.521 198.817C936.566 208.087 932.93 216.82 926.332 223.404Z" fill="white"/>
<path d="M717.963 97.9176C673.748 97.9176 637.883 133.7 637.883 177.813C637.883 221.926 673.748 257.709 717.963 257.709C762.177 257.709 798.043 221.926 798.043 177.813C798.043 133.7 762.177 97.9176 717.963 97.9176ZM742.606 202.4C736.008 208.983 727.255 212.566 717.963 212.566C708.671 212.566 699.918 208.938 693.319 202.4C686.721 195.817 683.13 187.084 683.13 177.813C683.13 168.543 686.766 159.81 693.319 153.226C699.918 146.643 708.671 143.06 717.963 143.06C727.255 143.06 736.008 146.688 742.606 153.226C749.205 159.81 752.796 168.543 752.796 177.813C752.796 187.084 749.16 195.817 742.606 202.4Z" fill="white"/>
<path d="M1147.76 87.662C1139.23 81.0339 1130.53 74.8088 1120.74 70.1512C1115.49 67.6433 1110.06 65.3593 1104.49 63.6575C1099.02 61.9556 1093.45 61.1495 1087.79 60.433C1083.84 59.9403 1079.89 59.8508 1075.94 60.2538C1070.47 60.836 1064.99 61.5526 1059.83 63.5231C1054.67 65.4488 1049.55 67.6881 1045.06 70.9573C1040.26 74.4505 1035.72 78.1229 1031.91 82.6909C1023.42 92.857 1017 104.322 1012.47 116.727C1011.12 120.399 1010.09 124.206 1009.55 128.102C1009.1 131.372 1008.57 134.641 1008.52 137.955C1008.52 141.135 1009.01 144.314 1009.46 147.494C1010.09 152.062 1011.84 156.138 1013.77 160.347C1015.61 164.378 1018.49 167.961 1021.31 171.275C1023.24 173.559 1025.44 175.574 1027.82 177.455C1031.59 180.411 1035.32 183.232 1039.49 185.651C1047.03 189.995 1055.16 193.353 1063.24 196.578C1070.24 199.399 1077.33 201.952 1084.38 204.639C1086.27 205.356 1088.11 206.072 1089.95 206.834C1088.42 206.207 1086.9 205.535 1085.41 204.908C1094.48 208.759 1103.14 213.596 1110.91 219.642C1109.61 218.657 1108.35 217.671 1107.05 216.686C1112.26 220.717 1117.06 225.285 1121.14 230.48C1120.16 229.181 1119.17 227.927 1118.18 226.628C1120.92 230.211 1123.3 234.063 1125.09 238.228C1124.47 236.705 1123.79 235.182 1123.16 233.704C1124.6 237.063 1125.59 240.601 1126.08 244.229C1125.86 242.527 1125.63 240.87 1125.41 239.168C1125.86 242.572 1125.86 246.02 1125.41 249.424C1125.63 247.722 1125.86 246.065 1126.08 244.363C1125.54 248.214 1124.47 251.932 1122.99 255.559C1123.61 254.036 1124.29 252.514 1124.92 251.036C1123.21 255.022 1121.05 258.739 1118.41 262.187C1119.39 260.888 1120.38 259.635 1121.37 258.336C1118.72 261.695 1115.67 264.74 1112.3 267.337C1113.6 266.352 1114.86 265.367 1116.16 264.382C1112.21 267.427 1107.81 269.935 1103.23 271.861C1104.76 271.234 1106.29 270.562 1107.77 269.935C1102.07 272.309 1096.1 273.876 1089.99 274.727C1091.7 274.503 1093.36 274.279 1095.06 274.055C1088.15 274.996 1081.1 274.951 1074.15 274.055C1075.85 274.279 1077.51 274.503 1079.22 274.727C1072.71 273.831 1066.29 272.174 1060.23 269.621C1061.76 270.248 1063.28 270.92 1064.77 271.547C1059.92 269.487 1055.29 266.89 1051.07 263.665C1052.38 264.65 1053.63 265.636 1054.94 266.621C1051.43 263.934 1048.29 260.844 1045.6 257.351C1046.59 258.649 1047.57 259.903 1048.56 261.202C1046.14 258.067 1044.12 254.619 1042.55 250.991C1043.17 252.514 1043.85 254.036 1044.48 255.514C1042.82 251.573 1041.74 247.453 1041.15 243.243C1041.38 244.945 1041.6 246.602 1041.83 248.304C1041.56 246.11 1041.38 243.96 1041.38 241.766C1041.33 236.839 1039.27 231.779 1035.81 228.33C1034.11 226.494 1032.04 225.15 1029.66 224.389C1027.37 223.18 1024.95 222.643 1022.3 222.732C1017.36 222.956 1012.25 224.568 1008.84 228.285C1005.42 232.002 1003.22 236.615 1003.27 241.721C1003.31 245.617 1003.85 249.468 1004.39 253.32C1004.71 255.47 1005.11 257.574 1005.69 259.679C1006.23 261.695 1006.95 263.665 1007.76 265.591C1009.15 268.905 1010.5 272.264 1012.34 275.354C1013.37 277.1 1014.49 278.758 1015.7 280.325C1017.86 283.146 1019.97 285.968 1022.48 288.521C1026.39 292.462 1030.88 295.955 1035.54 299C1040.35 302.135 1045.55 304.329 1050.81 306.524C1054.71 308.136 1058.75 309.345 1062.84 310.241C1068.58 311.495 1074.46 312.301 1080.34 312.615C1084.61 312.839 1088.92 312.749 1093.13 312.256C1098.97 311.629 1104.81 310.823 1110.42 309.211C1115.94 307.644 1121.37 305.404 1126.49 302.762C1131.56 300.165 1136.09 296.806 1140.49 293.223C1144.94 289.595 1148.44 285.206 1151.85 280.638C1155.75 275.443 1158.45 269.398 1160.65 263.307C1161.99 259.59 1162.67 255.828 1163.2 251.932C1163.7 248.259 1164.06 244.632 1163.74 240.915C1163.34 236.57 1162.8 232.137 1161.54 227.927C1160.29 223.807 1158.54 219.732 1156.56 215.88C1155.26 213.327 1153.73 210.909 1152.03 208.58C1149.38 204.997 1146.64 201.459 1143.54 198.235C1138.29 192.771 1132.23 188.024 1125.99 183.68C1120.97 180.187 1115.62 177.141 1110.1 174.454C1099.06 169.17 1087.39 165.274 1075.99 160.84C1073.7 159.944 1071.36 159.004 1069.12 158.063C1070.65 158.69 1072.17 159.362 1073.65 159.989C1065.8 156.675 1057.94 152.913 1051.16 147.718C1052.47 148.703 1053.72 149.689 1055.02 150.674C1052.24 148.524 1049.64 146.061 1047.48 143.284C1048.47 144.583 1049.46 145.837 1050.45 147.136C1048.83 145.031 1047.48 142.792 1046.45 140.373C1047.08 141.896 1047.75 143.419 1048.38 144.897C1047.35 142.478 1046.68 139.925 1046.32 137.328C1046.54 139.03 1046.77 140.687 1046.99 142.389C1046.59 139.299 1046.68 136.208 1047.08 133.118C1046.86 134.82 1046.63 136.477 1046.41 138.179C1047.08 133.118 1048.65 128.237 1050.63 123.534C1050 125.057 1049.32 126.58 1048.7 128.058C1051.79 120.803 1055.7 113.682 1060.55 107.457C1059.56 108.755 1058.57 110.009 1057.58 111.308C1060.41 107.681 1063.6 104.411 1067.23 101.59C1065.93 102.575 1064.68 103.56 1063.37 104.546C1066.43 102.217 1069.7 100.291 1073.2 98.8133C1071.68 99.4403 1070.15 100.112 1068.67 100.739C1072.26 99.2612 1075.99 98.2759 1079.8 97.7385C1078.1 97.9624 1076.44 98.1863 1074.73 98.4102C1079.31 97.828 1083.98 97.9176 1088.56 98.4998C1086.85 98.2759 1085.19 98.052 1083.48 97.828C1089.99 98.7237 1096.32 100.649 1102.43 103.202C1100.9 102.575 1099.37 101.903 1097.89 101.276C1107.23 105.262 1115.94 110.636 1123.97 116.817C1122.67 115.831 1121.41 114.846 1120.11 113.861C1120.43 114.085 1120.7 114.309 1121.01 114.533C1122.72 116.369 1124.78 117.712 1127.16 118.474C1129.45 119.683 1131.87 120.22 1134.52 120.131C1137.12 120.22 1139.59 119.683 1141.88 118.474C1144.26 117.712 1146.28 116.414 1148.03 114.533C1151.35 110.905 1153.82 106.158 1153.6 101.097C1153.37 99.3955 1153.15 97.7385 1152.93 96.0367C1151.76 92.8122 1150.14 90.0355 1147.76 87.662Z" fill="white"/>
</g>
<defs>
<clipPath id="clip0">
<rect width="44" height="93" fill="white" transform="translate(960 285)"/>
</clipPath>
<clipPath id="clip1">
<rect width="886" height="318" fill="white" transform="translate(517 60)"/>
</clipPath>
</defs>
</svg>
