<svg width="1920" height="770" viewBox="0 0 1920 770" fill="none" xmlns="http://www.w3.org/2000/svg">
    <rect y="685" width="1920" height="85" fill="#D5E06C" />
    <path
        d="M1482.55 335.691C1470.34 330.585 1464.59 316.612 1469.7 304.413L1504.06 222.423C1509.17 210.224 1523.15 204.479 1535.36 209.585C1547.57 214.692 1553.32 228.664 1548.21 240.864L1513.85 322.854C1508.74 335.053 1494.76 340.798 1482.55 335.691Z"
        fill="#FFD6AE" />
    <path
        d="M1714.54 193.414C1714.47 193.131 1714.33 192.776 1714.26 192.492C1714.11 192.138 1714.11 191.925 1714.11 191.925L1713.97 191.499C1708.01 173.91 1691.33 161.285 1671.73 161.285H1623.6H1600.39H1552.26C1534.37 161.285 1518.96 171.782 1511.87 186.96L1511.79 187.102C1511.16 188.52 1510.52 190.01 1510.02 191.57L1490.92 209.727C1496.32 221.288 1511.94 251.715 1527.27 256.68L1525.92 260.723C1509.38 255.332 1493.76 225.685 1487.66 212.848L1477.08 222.848C1477.08 222.848 1507.96 272 1524.57 274.27L1519.11 361.224C1541.11 350.727 1574.55 343.989 1611.96 343.989C1649.37 343.989 1682.81 350.727 1704.81 361.224L1699.35 274.482C1713.05 271.858 1740.59 232.14 1746.84 230.083C1746.84 230.083 1717.73 204.053 1714.54 193.414Z"
        fill="#FF8022" />
    <path
        d="M1525.99 260.723L1527.34 256.68C1512.01 251.715 1496.46 221.217 1490.99 209.727L1487.73 212.848C1493.76 225.685 1509.45 255.332 1525.99 260.723Z"
        fill="white" />
    <path d="M1593.22 532.297H1556.3L1548.07 428.533H1601.88L1593.22 532.297Z" fill="#FFD6AE" />
    <path d="M1679.4 533.219H1642.49L1634.25 429.455H1688.06L1679.4 533.219Z" fill="#FFD6AE" />
    <path
        d="M1703.25 432.008L1705.17 366.402L1704.81 361.224C1682.81 350.727 1649.37 343.99 1611.96 343.99C1574.55 343.99 1541.11 350.727 1519.11 361.224L1518.75 366.402L1536.92 444.633C1537 444.988 1537.07 445.342 1537.21 445.697C1537.85 447.612 1539.69 448.96 1541.82 448.96H1603.44C1606.07 448.96 1608.2 446.903 1608.34 444.349C1608.34 444.278 1608.34 444.137 1608.34 444.066C1608.34 443.995 1608.34 443.853 1608.34 443.782V386.9L1621.61 443.853C1621.76 444.349 1622.04 444.846 1622.32 445.271C1623.25 446.548 1624.67 447.399 1626.37 447.399C1626.66 447.399 1626.94 447.399 1627.29 447.328L1628.08 447.115L1699.28 438.321C1699.63 438.25 1699.99 438.179 1700.34 438.037C1702.19 437.328 1703.47 435.555 1703.47 433.427C1703.47 433.214 1703.47 433.001 1703.39 432.788L1703.25 432.008Z"
        fill="#EDE2B4" />
    <path
        d="M1767.07 292.143C1758.2 301.931 1743.08 302.711 1733.28 293.916L1694.52 259.021C1684.72 250.155 1683.94 235.048 1692.75 225.26C1701.62 215.472 1716.74 214.692 1726.54 223.487L1765.3 258.382C1775.09 267.248 1775.88 282.355 1767.07 292.143Z"
        fill="#FFD6AE" />
    <path
        d="M1748.62 258.595C1767.21 248.878 1782.48 234.267 1792.84 216.607L1759.19 141.993C1736.97 139.156 1714.11 143.057 1693.88 153.625C1672.94 164.477 1656.26 181.711 1645.89 202.493L1679.97 269.73C1703.25 273.489 1727.39 269.73 1748.62 258.595Z"
        fill="url(#paint0_linear)" />
    <path
        d="M1805.34 185.612L1810.38 164.193C1811.02 161.285 1809.52 158.377 1806.76 157.313L1786.31 149.157C1784.68 148.518 1783.05 147.88 1781.41 147.312L1802.85 194.762C1803.77 191.712 1804.63 188.662 1805.34 185.612Z"
        fill="url(#paint1_linear)" />
    <path
        d="M1632.19 248.169C1631.55 251.077 1633.04 253.985 1635.81 255.049L1656.26 263.205C1656.33 263.276 1656.4 263.205 1656.54 263.276L1637.52 225.615C1637.45 225.969 1637.3 226.253 1637.23 226.607L1632.19 248.169Z"
        fill="url(#paint2_linear)" />
    <path
        d="M1802.78 194.691L1781.34 147.242C1774.1 144.759 1766.72 143.057 1759.19 142.064L1792.84 216.536C1796.96 209.727 1800.22 202.422 1802.78 194.691Z"
        fill="white" />
    <path
        d="M1679.97 269.801L1645.89 202.564C1642.27 209.869 1639.36 217.671 1637.45 225.756L1656.47 263.418C1664.14 266.326 1672.02 268.454 1679.97 269.801Z"
        fill="white" />
    <path
        d="M1686.22 227.033C1685.72 227.033 1685.22 226.749 1684.94 226.253C1684.58 225.544 1684.87 224.693 1685.51 224.338L1752.8 189.23C1753.51 188.875 1754.37 189.159 1754.72 189.797C1755.08 190.506 1754.79 191.357 1754.15 191.712L1686.85 226.82C1686.71 226.962 1686.43 227.033 1686.22 227.033Z"
        fill="white" />
    <path
        d="M1750.32 204.904C1749.82 204.904 1749.33 204.62 1749.04 204.124L1739.81 186.464C1739.46 185.754 1739.74 184.903 1740.38 184.549C1741.09 184.194 1741.94 184.478 1742.3 185.116L1751.53 202.776C1751.88 203.486 1751.6 204.337 1750.96 204.691C1750.74 204.833 1750.53 204.904 1750.32 204.904Z"
        fill="white" />
    <path
        d="M1740.03 210.295C1739.53 210.295 1739.03 210.011 1738.75 209.514L1729.52 191.854C1729.16 191.145 1729.45 190.294 1730.09 189.939C1730.8 189.584 1731.65 189.868 1732 190.506L1741.23 208.167C1741.59 208.876 1741.3 209.727 1740.66 210.082C1740.45 210.224 1740.24 210.295 1740.03 210.295Z"
        fill="white" />
    <path
        d="M1729.66 215.685C1729.16 215.685 1728.67 215.401 1728.38 214.905L1719.15 197.244C1718.8 196.535 1719.08 195.684 1719.72 195.329C1720.43 194.975 1721.28 195.258 1721.64 195.897L1730.87 213.557C1731.22 214.266 1730.94 215.118 1730.3 215.472C1730.16 215.614 1729.95 215.685 1729.66 215.685Z"
        fill="white" />
    <path
        d="M1719.3 221.075C1718.8 221.075 1718.3 220.792 1718.02 220.295L1708.86 202.564C1708.51 201.854 1708.79 201.003 1709.5 200.649C1710.21 200.294 1711.06 200.578 1711.42 201.287L1720.57 219.018C1720.93 219.728 1720.65 220.579 1719.94 220.933C1719.72 221.004 1719.51 221.075 1719.3 221.075Z"
        fill="white" />
    <path
        d="M1709 226.466C1708.51 226.466 1708.01 226.182 1707.73 225.685L1698.5 208.025C1698.14 207.316 1698.43 206.465 1699.06 206.11C1699.77 205.755 1700.63 206.039 1700.98 206.677L1710.21 224.338C1710.56 225.047 1710.28 225.898 1709.64 226.253C1709.43 226.395 1709.22 226.466 1709 226.466Z"
        fill="white" />
    <path
        d="M1698.71 231.785C1698.21 231.785 1697.72 231.501 1697.43 231.005L1688.2 213.344C1687.85 212.635 1688.13 211.784 1688.77 211.429C1689.48 211.075 1690.33 211.358 1690.69 211.997L1699.92 229.657C1700.27 230.367 1699.99 231.218 1699.35 231.572C1699.14 231.785 1698.92 231.785 1698.71 231.785Z"
        fill="white" />
    <path
        d="M1755.64 258.028L1691.97 244.552C1694.73 249.516 1696.3 255.19 1696.3 261.29C1696.3 273.773 1689.62 284.766 1679.68 290.795L1745.7 304.768C1758.62 307.534 1771.33 299.235 1774.1 286.327C1776.87 273.418 1768.56 260.723 1755.64 258.028Z"
        fill="#FFD6AE" />
    <path
        d="M1696.3 261.219C1696.3 255.12 1694.73 249.446 1691.97 244.481L1673.3 240.509C1660.38 237.743 1647.67 246.041 1644.9 258.95C1642.13 271.858 1650.44 284.554 1663.36 287.32L1679.76 290.795C1689.69 284.696 1696.3 273.773 1696.3 261.219Z"
        fill="#EAB78C" />
    <path
        d="M1652.28 293.278C1671.38 293.278 1686.85 277.813 1686.85 258.737C1686.85 239.66 1671.38 224.196 1652.28 224.196C1633.19 224.196 1617.71 239.66 1617.71 258.737C1617.71 277.813 1633.19 293.278 1652.28 293.278Z"
        fill="#FFD6AE" />
    <path d="M1601.88 654.928H1552.19L1556.02 528.112H1593.36L1601.88 654.928Z" fill="#FF8022" />
    <path d="M1688.06 654.928H1638.3L1642.2 528.112H1679.54L1688.06 654.928Z" fill="#FF8022" />
    <path
        d="M1607.77 685H1546.22C1544.38 685 1542.89 683.51 1542.89 681.666V676.063C1542.89 674.219 1544.38 672.73 1546.22 672.73H1607.77C1609.62 672.73 1611.11 674.219 1611.11 676.063V681.666C1611.18 683.51 1609.69 685 1607.77 685Z"
        fill="#898989" />
    <path
        d="M1611.18 657.197C1611.18 639.962 1597.2 625.99 1579.94 625.99H1574.19C1556.94 625.99 1542.96 639.962 1542.96 657.197V676.276H1611.25V657.197H1611.18Z"
        fill="#C1C0BF" />
    <path
        d="M1693.95 685H1632.41C1630.56 685 1629.07 683.51 1629.07 681.666V676.063C1629.07 674.219 1630.56 672.73 1632.41 672.73H1693.95C1695.8 672.73 1697.29 674.219 1697.29 676.063V681.666C1697.36 683.51 1695.8 685 1693.95 685Z"
        fill="#898989" />
    <path
        d="M1697.36 657.197C1697.36 639.962 1683.38 625.99 1666.13 625.99H1660.38C1643.13 625.99 1629.14 639.962 1629.14 657.197V676.276H1697.43V657.197H1697.36Z"
        fill="#C1C0BF" />
    <path
        d="M1611.96 187.244C1602.16 187.244 1594.21 179.3 1594.21 169.512V134.262C1594.21 124.475 1602.16 116.531 1611.96 116.531C1621.76 116.531 1629.71 124.475 1629.71 134.262V169.512C1629.78 179.3 1621.83 187.244 1611.96 187.244Z"
        fill="#F9B882" />
    <path
        d="M1611.96 0C1573.91 0 1543.1 28.0156 1543.1 62.4855V73.9755C1543.1 108.516 1573.91 136.461 1611.96 136.461C1650.01 136.461 1680.82 108.445 1680.82 73.9755V62.4855C1680.89 28.0156 1650.01 0 1611.96 0Z"
        fill="#474441" />
    <path
        d="M1611.96 20.2848C1579.09 20.2848 1552.4 48.3004 1552.4 82.7703V94.3312C1552.4 128.872 1579.09 156.817 1611.96 156.817C1644.83 156.817 1671.52 128.801 1671.52 94.3312V82.8412C1671.59 48.3004 1644.9 20.2848 1611.96 20.2848Z"
        fill="#FFD6AE" />
    <path
        d="M1578.03 12.0574C1578.03 12.0574 1574.69 60.5705 1609.48 66.3155C1644.26 72.0605 1674.29 62.982 1674.29 62.982C1674.29 62.982 1667.97 -5.39032 1578.03 12.0574Z"
        fill="#474441" />
    <path
        d="M1586.69 94.5439C1584.35 94.5439 1582.43 92.6289 1582.43 90.2884V78.5856C1582.43 76.2451 1584.35 74.3301 1586.69 74.3301C1589.03 74.3301 1590.95 76.2451 1590.95 78.5856V90.2884C1590.88 92.6289 1589.03 94.5439 1586.69 94.5439Z"
        fill="#474441" />
    <path
        d="M1632.62 94.5439C1630.28 94.5439 1628.36 92.6289 1628.36 90.2884V78.5856C1628.36 76.2451 1630.28 74.3301 1632.62 74.3301C1634.96 74.3301 1636.88 76.2451 1636.88 78.5856V90.2884C1636.88 92.6289 1634.96 94.5439 1632.62 94.5439Z"
        fill="#474441" />
    <path
        d="M1611.32 114.9C1611.18 114.9 1611.04 114.9 1610.9 114.9C1603.37 114.616 1598.33 107.523 1598.12 107.24C1597.48 106.247 1597.69 104.97 1598.69 104.261C1599.68 103.622 1600.96 103.835 1601.67 104.757C1601.74 104.828 1605.71 110.431 1611.11 110.573C1614.44 110.715 1617.71 108.658 1620.98 104.615C1621.69 103.693 1623.03 103.551 1623.96 104.261C1624.88 104.97 1625.02 106.318 1624.31 107.24C1620.27 112.346 1615.94 114.9 1611.32 114.9Z"
        fill="#474441" />
    <path
        d="M1503.35 365.267C1515.2 362.359 1527.13 368.884 1531.39 379.949C1531.25 378.956 1531.1 377.963 1530.89 376.97L1514.21 308.881C1511.08 296.044 1498.09 288.171 1485.32 291.363C1472.4 294.483 1464.59 307.463 1467.71 320.3L1484.39 388.389C1484.61 389.382 1484.96 390.304 1485.32 391.226C1483.9 379.381 1491.49 368.104 1503.35 365.267Z"
        fill="#FFD6AE" />
    <path
        d="M1513.29 405.907C1525.14 403 1532.74 391.793 1531.39 379.949C1527.13 368.813 1515.2 362.359 1503.35 365.267C1491.49 368.175 1483.9 379.381 1485.24 391.226C1489.5 402.29 1501.43 408.745 1513.29 405.907Z"
        fill="#EAB78C" />
    <path
        d="M1549.13 230.296C1549.13 223.699 1551.9 220.437 1555.95 220.437C1560 220.437 1562.76 223.77 1562.76 230.296C1562.76 236.892 1560 240.367 1555.95 240.367C1551.9 240.367 1549.13 236.892 1549.13 230.296ZM1558.43 230.296C1558.43 225.047 1557.3 223.983 1555.95 223.983C1554.6 223.983 1553.47 225.047 1553.47 230.296C1553.47 235.544 1554.53 236.821 1555.95 236.821C1557.37 236.821 1558.43 235.544 1558.43 230.296Z"
        fill="white" />
    <path
        d="M1573.48 224.551H1565.18V220.721H1578.38V223.487C1573.91 228.806 1573.48 232.423 1573.13 239.941H1568.51C1568.87 233.629 1569.86 229.586 1573.48 224.551Z"
        fill="white" />
    <path
        d="M1633.68 45.3925C1637.29 45.3925 1640.21 42.4711 1640.21 38.8673C1640.21 35.2636 1637.29 32.3422 1633.68 32.3422C1630.08 32.3422 1627.15 35.2636 1627.15 38.8673C1627.15 42.4711 1630.08 45.3925 1633.68 45.3925Z"
        fill="white" />
    <path
        d="M1645.96 30.7818C1647.77 30.7818 1649.23 29.321 1649.23 27.5192C1649.23 25.7173 1647.77 24.2566 1645.96 24.2566C1644.16 24.2566 1642.7 25.7173 1642.7 27.5192C1642.7 29.321 1644.16 30.7818 1645.96 30.7818Z"
        fill="white" />
    <path
        d="M1533.73 374.771C1528.19 373.566 1522.73 373.92 1517.69 375.551C1520.88 375.197 1524.22 375.339 1527.48 376.119C1544.17 379.736 1554.74 396.191 1551.12 412.787C1548.71 423.923 1540.55 432.292 1530.39 435.625C1543.24 434.278 1554.39 424.845 1557.3 411.511C1560.99 394.772 1550.41 378.388 1533.73 374.771Z"
        fill="#AFA166" />
    <path
        d="M1524.57 370.728C1520.81 370.09 1517.12 370.09 1513.57 370.658C1499.23 372.856 1487.3 383.992 1484.75 399.099C1481.62 417.894 1494.33 435.767 1513.14 438.888C1519.39 439.952 1525.5 439.243 1531.03 437.115C1542.18 432.93 1550.84 423.072 1552.97 410.447C1556.09 391.722 1543.38 373.849 1524.57 370.728Z"
        fill="#FFD6AE" />
    <defs>
        <linearGradient id="paint0_linear" x1="1733.44" y1="221.016" x2="1677.53" y2="160.034"
            gradientUnits="userSpaceOnUse">
            <stop stop-color="#CA652C" />
            <stop offset="1" stop-color="#9B2C1A" />
        </linearGradient>
        <linearGradient id="paint1_linear" x1="1794.83" y1="164.737" x2="1738.93" y2="103.754"
            gradientUnits="userSpaceOnUse">
            <stop stop-color="#CA652C" />
            <stop offset="1" stop-color="#9B2C1A" />
        </linearGradient>
        <linearGradient id="paint2_linear" x1="1671.02" y1="278.239" x2="1615.11" y2="217.257"
            gradientUnits="userSpaceOnUse">
            <stop stop-color="#CA652C" />
            <stop offset="1" stop-color="#9B2C1A" />
        </linearGradient>
    </defs>
</svg>