<svg width="50" height="60" viewBox="0 0 197 458" fill="none" xmlns="http://www.w3.org/2000/svg">
<g clip-path="url(#clip0)">
<path d="M115.39 14.4517L126.334 8.91412C127.685 8.2388 129.307 9.31931 129.171 10.805L128.361 23.0958L127.55 35.3865C127.55 35.6567 127.415 35.9268 127.28 36.1969C129.712 40.2488 131.333 44.841 132.144 49.7033C132.414 49.2981 132.549 48.7578 132.549 48.2176L133.901 26.0672L135.252 3.91677C135.387 1.08044 132.549 -0.810448 129.982 0.405122L110.525 10.2648L97.1488 16.8829C100.392 17.153 103.499 17.8283 106.472 18.9088L115.39 14.4517Z" fill="#E2DBCF"/>
<path d="M128.496 23.2308L129.307 10.9401C129.442 9.45436 127.82 8.37385 126.469 9.04917L115.525 14.5868L106.472 18.9088C115.39 22.0153 122.821 28.0931 127.55 36.1969C127.685 35.9268 127.82 35.6567 127.82 35.3865L128.496 23.2308Z" fill="#161016"/>
<path d="M59.5864 23.2308L58.7757 10.9401C58.6406 9.45437 60.262 8.37386 61.6131 9.04918L72.5576 14.5868L81.2051 18.9088C84.3127 17.9634 87.4204 17.288 90.7983 17.0179L77.4218 10.3998L57.6948 0.405122C55.2627 -0.810448 52.2901 1.08044 52.4252 3.91677L53.7764 26.0672L55.1276 48.0825C56.0734 43.4903 57.8299 39.3034 60.262 35.3865L59.5864 23.2308Z" fill="#E2DBCF"/>
<path d="M61.7483 9.04917C60.3972 8.37385 58.7758 9.45436 58.9109 10.9401L59.7216 23.2308L60.3972 35.3865C65.2613 27.6879 72.6928 21.7451 81.4753 18.9088L72.8279 14.5868L61.7483 9.04917Z" fill="#161016"/>
<path d="M92.8251 458.135C144.091 458.135 185.65 416.592 185.65 365.347C185.65 314.101 144.091 272.558 92.8251 272.558C41.5592 272.558 0 314.101 0 365.347C0 416.592 41.5592 458.135 92.8251 458.135Z" fill="#617810"/>
<path d="M138.495 81.4431L112.957 137.224C107.283 149.515 112.822 163.967 124.983 169.64C137.278 175.312 151.736 169.775 157.411 157.619L182.948 101.838L138.495 81.4431Z" fill="#E2D5C9"/>
<path d="M194.838 75.9055C200.513 63.6148 194.973 49.163 182.813 43.4903C170.517 37.8176 156.06 43.3552 150.385 55.5109L138.63 81.3081L183.083 101.568L194.838 75.9055Z" fill="#161016"/>
<path d="M148.088 407.891L132.414 409.917C130.117 410.187 127.955 408.567 127.685 406.271L120.119 348.463C119.848 346.167 121.47 344.006 123.767 343.736L139.44 341.71C141.737 341.44 143.899 343.061 144.169 345.357L151.736 403.164C152.006 405.46 150.385 407.621 148.088 407.891Z" fill="#161016"/>
<path d="M40.1297 407.891L55.8032 409.917C58.1002 410.187 60.262 408.567 60.5323 406.271L68.0988 348.463C68.369 346.167 66.7476 344.006 64.4506 343.736L48.7771 341.71C46.4801 341.44 44.3183 343.061 44.048 345.357L36.4815 403.164C36.0762 405.46 37.8327 407.621 40.1297 407.891Z" fill="#161016"/>
<path d="M163.356 198.138C163.356 159.915 132.279 128.851 94.0411 128.851C55.8031 128.851 24.7263 159.915 24.7263 198.138V299.571C24.7263 304.973 25.4019 310.376 26.618 315.373C33.7791 284.714 61.3429 261.888 94.1762 261.888C127.01 261.888 154.573 284.714 161.735 315.373C162.951 310.241 163.626 304.973 163.626 299.571V198.138H163.356Z" fill="#D8D1CB"/>
<path d="M94.0412 261.888C61.2079 261.888 33.6441 284.714 26.4829 315.373C33.6441 346.032 61.2079 368.858 94.0412 368.858C126.875 368.858 154.438 346.032 161.6 315.373C154.438 284.714 126.875 261.888 94.0412 261.888Z" fill="#161016"/>
<path d="M94.0411 140.466C75.2599 140.466 60.1268 125.204 60.1268 106.565V284.849C60.1268 303.622 75.395 318.75 94.0411 318.75C112.687 318.75 127.955 303.487 127.955 284.849V106.565C128.09 125.339 112.822 140.466 94.0411 140.466Z" fill="#E2DBCF"/>
<path d="M94.0411 40.519C75.2599 40.519 60.1268 55.7812 60.1268 74.42V106.565C60.1268 125.339 75.395 140.466 94.0411 140.466C112.687 140.466 127.955 125.204 127.955 106.565V74.42C128.09 55.6461 112.822 40.519 94.0411 40.519Z" fill="#C6BDAF"/>
<path d="M94.0412 120.071C123.816 120.071 147.953 95.9439 147.953 66.1811C147.953 36.4183 123.816 12.2908 94.0412 12.2908C64.2666 12.2908 40.1296 36.4183 40.1296 66.1811C40.1296 95.9439 64.2666 120.071 94.0412 120.071Z" fill="#E2DBCF"/>
<path d="M97.1488 17.0179C96.0679 16.8828 94.8519 16.8828 93.6358 16.8828C92.69 16.8828 91.7442 17.0179 90.9335 17.0179L94.0411 18.6386L97.1488 17.0179Z" fill="#E2DBCF"/>
<path d="M97.5542 20.2595C99.9863 21.4751 100.257 24.9868 97.9595 26.4725L94.1763 29.0387L108.904 38.7632L127.415 51.054C129.307 52.2696 131.604 51.5942 132.549 49.8384C131.739 44.9761 130.117 40.384 127.685 36.3321C127.145 37.4126 125.794 37.8178 124.848 37.1425L114.579 30.3893L104.31 23.6361C102.959 22.8257 103.094 20.7998 104.58 20.1245L106.607 19.179C103.634 18.0985 100.527 17.4232 97.284 17.1531L94.1763 18.6388L97.5542 20.2595Z" fill="#E2DBCF"/>
<path d="M106.472 18.9089L104.445 19.8544C103.094 20.5297 102.959 22.4206 104.175 23.366L114.444 30.1192L124.713 36.8724C125.794 37.5477 127.145 37.1425 127.55 36.062C122.821 28.2283 115.39 22.0154 106.472 18.9089Z" fill="#E2DBCF"/>
<path d="M60.8025 51.0539L79.3134 38.7631L94.0411 29.0385L90.2579 26.4723C87.9609 24.9866 88.096 21.475 90.6632 20.2594L94.0411 18.5036L90.9335 16.8828C87.5555 17.1529 84.4479 17.6932 81.3402 18.7737L83.6372 19.9893C84.9883 20.6646 85.1234 22.5555 83.9074 23.5009L73.6385 30.2541L63.3697 37.0073C62.0185 37.8176 60.3971 37.0073 60.262 35.5216V35.3865C57.8299 39.1683 56.0734 43.4903 55.1276 48.0825V48.2175C55.3978 50.9188 58.5055 52.5396 60.8025 51.0539Z" fill="#E2DBCF"/>
<path d="M97.5541 20.2595L94.1762 18.5037L90.6632 20.2595C88.2311 21.4751 87.9609 24.9867 90.2579 26.4724L94.0411 29.0386L97.8244 26.4724C100.256 24.9867 99.9862 21.4751 97.5541 20.2595Z" fill="#E2DBCF"/>
<path d="M60.3971 35.2515C60.5322 36.8722 62.2887 37.8177 63.5048 36.8722L73.7736 30.1191L84.0425 23.3659C85.3937 22.5555 85.2585 20.5296 83.7723 19.8542L81.4753 18.6387C72.5576 21.7451 65.1262 27.5529 60.3971 35.2515Z" fill="#E2DBCF"/>
<path d="M111.741 43.7604C112.861 43.7604 113.768 42.8534 113.768 41.7344C113.768 40.6155 112.861 39.7085 111.741 39.7085C110.622 39.7085 109.715 40.6155 109.715 41.7344C109.715 42.8534 110.622 43.7604 111.741 43.7604Z" fill="#161016"/>
<path d="M76.476 43.7604C77.5953 43.7604 78.5027 42.8534 78.5027 41.7344C78.5027 40.6155 77.5953 39.7085 76.476 39.7085C75.3566 39.7085 74.4492 40.6155 74.4492 41.7344C74.4492 42.8534 75.3566 43.7604 76.476 43.7604Z" fill="#161016"/>
<path d="M93.6357 57.6721C89.9876 57.6721 87.1501 54.7007 87.1501 51.1891C87.1501 47.5424 90.1227 44.7061 93.6357 44.7061C97.2839 44.7061 100.121 47.6775 100.121 51.1891C100.256 54.8358 97.2839 57.6721 93.6357 57.6721Z" fill="#161016"/>
<path d="M94.8517 12.2908H93.2303V48.2176H94.8517V12.2908Z" fill="#161016"/>
<path d="M73.6385 81.1731H71.4767V88.8717H73.6385V81.1731Z" fill="#161016"/>
<path d="M113.363 84.0095H72.5576V86.1705H113.363V84.0095Z" fill="#161016"/>
</g>
<defs>
<clipPath id="clip0">
<rect width="197" height="458" fill="white"/>
</clipPath>
</defs>
</svg>
